<svg width="50" height="50" viewBox="0 0 50 50" fill="none" xmlns="http://www.w3.org/2000/svg">
<g id="Icon - &#208;&#158;&#209;&#136;&#208;&#184;&#208;&#177;&#208;&#186;&#208;&#176; &#208;&#191;&#208;&#190;&#208;&#180;&#208;&#186;&#208;&#187;&#209;&#142;&#209;&#135;&#208;&#181;&#208;&#189;&#208;&#184;&#209;&#143;">
<path id="Icon (Stroke)" fill-rule="evenodd" clip-rule="evenodd" d="M28.186 44.241C27.1492 44.4114 26.085 44.5 25 44.5C23.915 44.5 22.8508 44.4114 21.814 44.241C20.9622 43.2937 20.1423 41.9741 19.4137 40.3087C18.6418 38.5443 17.9972 36.4487 17.5259 34.1115C19.9645 33.7391 22.6314 33.5312 25.4409 33.5312C27.9263 33.5312 30.2984 33.6939 32.4987 33.9886C32.0253 36.3753 31.3717 38.5135 30.5863 40.3087C29.8577 41.9741 29.0378 43.2937 28.186 44.241ZM29.6524 47.0184C28.1512 47.334 26.595 47.5 25 47.5C23.405 47.5 21.8488 47.334 20.3476 47.0184C10.1535 44.8752 2.5 35.8314 2.5 25C2.5 14.1686 10.1535 5.12478 20.3476 2.98157C21.8488 2.66597 23.405 2.5 25 2.5C26.595 2.5 28.1512 2.66597 29.6524 2.98157C35.5191 4.21499 40.5444 7.73393 43.7537 12.5638C44.3059 13.3949 44.8043 14.2647 45.244 15.1685C46.6893 18.1388 47.5 21.4747 47.5 25C47.5 28.5253 46.6893 31.8612 45.244 34.8315C44.8043 35.7353 44.3059 36.6051 43.7537 37.4362C40.5444 42.2661 35.5191 45.785 29.6524 47.0184ZM41.0341 36.1007C38.9525 39.1017 36.05 41.4903 32.6516 42.9415C32.8907 42.4831 33.1186 42.0055 33.3348 41.5111C34.2248 39.4769 34.9459 37.0991 35.4588 34.4841C37.5507 34.9086 39.4306 35.4586 41.0341 36.1007ZM42.562 33.4853C43.8038 30.9199 44.5 28.0413 44.5 25C44.5 21.9587 43.8038 19.0801 42.562 16.5147C40.6404 17.3227 38.4001 17.9871 35.9367 18.4799C36.2026 20.557 36.3438 22.7452 36.3438 25C36.3438 27.2548 36.2026 29.443 35.9367 31.5201C38.4001 32.0129 40.6404 32.6773 42.562 33.4853ZM32.9754 31.026C30.5935 30.7032 28.0581 30.5312 25.4409 30.5312C22.5018 30.5312 19.6683 30.748 17.0405 31.1509C16.7913 29.2089 16.6562 27.1449 16.6562 25C16.6562 22.8551 16.7913 20.7911 17.0405 18.8491C19.6683 19.252 22.5018 19.4688 25.4409 19.4688C28.0581 19.4688 30.5935 19.2968 32.9754 18.974C33.2144 20.8795 33.3438 22.901 33.3438 25C33.3438 27.099 33.2144 29.1205 32.9754 31.026ZM32.4987 16.0114C30.2984 16.3061 27.9263 16.4688 25.4409 16.4688C22.6314 16.4688 19.9645 16.2609 17.5259 15.8885C17.9972 13.5513 18.6418 11.4557 19.4137 9.69133C20.1423 8.02592 20.9622 6.70633 21.814 5.75899C22.8508 5.58861 23.915 5.5 25 5.5C26.085 5.5 27.1492 5.58861 28.186 5.75899C29.0378 6.70633 29.8577 8.02592 30.5863 9.69133C31.3717 11.4865 32.0253 13.6247 32.4987 16.0114ZM35.4588 15.5159C37.5507 15.0914 39.4306 14.5414 41.0341 13.8993C38.9525 10.8983 36.05 8.50968 32.6516 7.05846C32.8907 7.51693 33.1186 7.99455 33.3348 8.48887C34.2248 10.5231 34.9459 12.9009 35.4588 15.5159ZM17.3484 7.05846C14.0583 8.4634 11.2331 10.7469 9.1675 13.6141C10.7036 14.2884 12.5289 14.8732 14.5771 15.3349C15.0876 12.7911 15.7958 10.4761 16.6652 8.48887C16.8814 7.99455 17.1093 7.51693 17.3484 7.05846ZM14.0868 18.2992C11.649 17.7603 9.45256 17.0494 7.5956 16.1966C6.25529 18.8411 5.5 21.8324 5.5 25C5.5 28.1676 6.25529 31.1589 7.5956 33.8034C9.45256 32.9506 11.649 32.2397 14.0868 31.7008C13.8057 29.57 13.6562 27.3203 13.6562 25C13.6562 22.6797 13.8057 20.43 14.0868 18.2992ZM14.5771 34.6651C12.5289 35.1268 10.7036 35.7116 9.1675 36.3859C11.2331 39.2531 14.0583 41.5366 17.3484 42.9415C17.1093 42.4831 16.8814 42.0055 16.6652 41.5111C15.7958 39.5239 15.0876 37.2089 14.5771 34.6651Z" fill="#0149FF"/>
</g>
</svg>
