<svg width="93" height="37" viewBox="0 0 93 37" fill="none" xmlns="http://www.w3.org/2000/svg">
<path d="M17.6111 36V29.025H0.461133V24.25L12.5111 0.999998H19.0361L7.21113 23.7H17.6111V16.25H23.1111V23.7H28.3111V29.025H23.1111V36H17.6111ZM46.7643 36.75C44.4809 36.75 42.4393 36.275 40.6393 35.325C38.8393 34.375 37.3143 33.0583 36.0643 31.375C34.8309 29.6917 33.8809 27.75 33.2143 25.55C32.5643 23.35 32.2393 21 32.2393 18.5C32.2393 15.9833 32.5643 13.625 33.2143 11.425C33.8809 9.225 34.8309 7.29167 36.0643 5.625C37.3143 3.94166 38.8393 2.625 40.6393 1.675C42.4393 0.724999 44.4809 0.249998 46.7643 0.249998C49.0476 0.249998 51.0809 0.724999 52.8643 1.675C54.6643 2.625 56.1893 3.94166 57.4393 5.625C58.6893 7.29167 59.6393 9.225 60.2893 11.425C60.9559 13.625 61.2893 15.9833 61.2893 18.5C61.2893 21 60.9559 23.35 60.2893 25.55C59.6393 27.75 58.6893 29.6917 57.4393 31.375C56.1893 33.0583 54.6643 34.375 52.8643 35.325C51.0809 36.275 49.0476 36.75 46.7643 36.75ZM46.7643 31.075C48.0143 31.075 49.1393 30.7917 50.1393 30.225C51.1559 29.6583 52.0226 28.8333 52.7393 27.75C53.4726 26.6667 54.0309 25.35 54.4143 23.8C54.8143 22.25 55.0143 20.4833 55.0143 18.5C55.0143 15.85 54.6726 13.5917 53.9893 11.725C53.3059 9.84166 52.3393 8.40833 51.0893 7.425C49.8559 6.425 48.4143 5.925 46.7643 5.925C45.5309 5.925 44.4059 6.20833 43.3893 6.775C42.3893 7.34166 41.5226 8.16666 40.7893 9.25C40.0559 10.3167 39.4893 11.6333 39.0893 13.2C38.7059 14.75 38.5143 16.5167 38.5143 18.5C38.5143 21.1333 38.8559 23.3917 39.5393 25.275C40.2393 27.1417 41.2059 28.575 42.4393 29.575C43.6726 30.575 45.1143 31.075 46.7643 31.075ZM82.2107 36V29.025H65.0607V24.25L77.1107 0.999998H83.6357L71.8107 23.7H82.2107V16.25H87.7107V23.7H92.9107V29.025H87.7107V36H82.2107Z" fill="#0149FF"/>
</svg>
