<svg width="50" height="50" viewBox="0 0 50 50" fill="none" xmlns="http://www.w3.org/2000/svg">
<g id="Icon - &#208;&#158;&#209;&#136;&#208;&#184;&#208;&#177;&#208;&#186;&#208;&#176; &#208;&#191;&#208;&#190;&#208;&#180;&#208;&#186;&#208;&#187;&#209;&#142;&#209;&#135;&#208;&#181;&#208;&#189;&#208;&#184;&#209;&#143;">
<path id="Vector (Stroke)" fill-rule="evenodd" clip-rule="evenodd" d="M7.18092 6.36678C7.18092 3.95507 9.13599 2 11.5477 2H37.4523C39.864 2 41.8191 3.95507 41.8191 6.36678V11.5477C41.8191 13.9594 39.864 15.9145 37.4523 15.9145H11.5477C9.13599 15.9145 7.18092 13.9594 7.18092 11.5477V6.36678ZM11.5477 5.55263C11.0981 5.55263 10.7336 5.91714 10.7336 6.36678V11.5477C10.7336 11.9973 11.0981 12.3618 11.5477 12.3618H37.4523C37.9019 12.3618 38.2664 11.9973 38.2664 11.5477V6.36678C38.2664 5.91714 37.9019 5.55263 37.4523 5.55263H11.5477ZM9.99342 24.722C9.82991 24.722 9.69737 24.8546 9.69737 25.0181V35.429C12.0996 36.1835 13.8421 38.4277 13.8421 41.079C13.8421 44.3491 11.1912 47 7.92105 47C4.65094 47 2 44.3491 2 41.079C2 38.4277 3.7425 36.1835 6.14474 35.429V25.0181C6.14474 22.8925 7.86785 21.1694 9.99342 21.1694H39.0066C41.1321 21.1694 42.8553 22.8925 42.8553 25.0181L42.8553 35.429C45.2575 36.1835 47 38.4277 47 41.079C47 44.3491 44.3491 47 41.0789 47C37.8088 47 35.1579 44.3491 35.1579 41.079C35.1579 38.4277 36.9004 36.1835 39.3026 35.429L39.3026 25.0181C39.3026 24.8546 39.1701 24.722 39.0066 24.722H26.2763V35.429C28.6786 36.1835 30.4211 38.4277 30.4211 41.079C30.4211 44.3491 27.7701 47 24.5 47C21.2299 47 18.5789 44.3491 18.5789 41.079C18.5789 38.4277 20.3215 36.1835 22.7237 35.429V24.722H9.99342ZM7.92105 38.7105C6.61301 38.7105 5.55263 39.7709 5.55263 41.079C5.55263 42.387 6.61301 43.4474 7.92105 43.4474C9.2291 43.4474 10.2895 42.387 10.2895 41.079C10.2895 39.7709 9.22909 38.7105 7.92105 38.7105ZM24.5 38.7105C23.192 38.7105 22.1316 39.7709 22.1316 41.079C22.1316 42.387 23.192 43.4474 24.5 43.4474C25.808 43.4474 26.8684 42.387 26.8684 41.079C26.8684 39.7709 25.808 38.7105 24.5 38.7105ZM41.0789 38.7105C39.7709 38.7105 38.7105 39.7709 38.7105 41.079C38.7105 42.387 39.7709 43.4474 41.0789 43.4474C42.387 43.4474 43.4474 42.387 43.4474 41.079C43.4474 39.7709 42.387 38.7105 41.0789 38.7105Z" fill="#0149FF"/>
</g>
</svg>
