<svg width="60" height="60" viewBox="0 0 60 60" fill="none" xmlns="http://www.w3.org/2000/svg">
<path d="M20.6831 21.6345C20.5631 21.4772 20.4052 21.352 20.2238 21.2705C20.0425 21.1889 19.8434 21.1534 19.6447 21.1673L18.4174 21.2296C18.3779 21.2357 18.3414 21.2541 18.3131 21.2821C18.2848 21.3101 18.2662 21.3462 18.2601 21.3853C17.3475 26.3689 16.6866 30.8542 16.2461 35.0903C16.191 35.5442 16.315 36.0016 16.5922 36.3673C16.716 36.5374 16.8759 36.6786 17.0608 36.7808C17.2457 36.8831 17.4509 36.9439 17.6622 36.9591L18.8894 37.0214C18.9345 37.022 18.9783 37.0067 19.0129 36.9781C19.0476 36.9495 19.0707 36.9097 19.0782 36.8657C19.5188 32.6296 20.1167 28.0821 20.9664 22.9739C21.0147 22.7433 21.0144 22.5054 20.9657 22.275C20.917 22.0445 20.8208 21.8265 20.6831 21.6345ZM52.6552 25.0608C52.3686 24.7157 51.9668 24.4837 51.5223 24.4067C50.7671 24.3132 48.7216 24.1886 47.337 24.1575C46.9204 24.1783 46.5255 24.3474 46.2248 24.6335C45.9242 24.9197 45.738 25.3037 45.7006 25.7149C45.6692 25.9329 45.1342 29.2657 45.0083 30.4493C44.9748 30.6479 44.987 30.8514 45.044 31.0447C45.1009 31.238 45.2011 31.4161 45.3372 31.5657C45.4733 31.7154 45.6417 31.8327 45.8299 31.9091C46.0182 31.9854 46.2214 32.0188 46.4244 32.0067H49.0363L48.7531 33.564L47.4314 33.6263C47.4458 33.5543 47.4563 33.4815 47.4629 33.4083C47.4714 33.2871 47.4551 33.1655 47.4151 33.0507C47.375 32.9359 47.312 32.8302 47.2297 32.7401C47.1475 32.6499 47.0477 32.5771 46.9363 32.526C46.825 32.475 46.7044 32.4466 46.5817 32.4427L44.788 32.505C44.743 32.5044 44.6992 32.5197 44.6645 32.5483C44.6299 32.5769 44.6067 32.6168 44.5992 32.6608L44.1901 35.0903C44.1432 35.3039 44.1414 35.5248 44.1847 35.7392C44.228 35.9536 44.3156 36.1568 44.4419 36.3362C44.5589 36.489 44.7117 36.6113 44.8872 36.6927C45.0626 36.7741 45.2553 36.8121 45.4489 36.8034C45.4803 36.8034 47.809 36.6788 49.7915 36.4608C50.5782 36.3673 51.365 35.6198 51.5852 34.7476C51.9348 33.3769 52.1767 31.9815 52.309 30.5739C52.353 30.361 52.3476 30.1411 52.2931 29.9306C52.2386 29.7202 52.1364 29.5247 51.9943 29.3591C51.8657 29.2013 51.7026 29.0745 51.5173 28.9881C51.3319 28.9018 51.1292 28.8582 50.9244 28.8608H48.2496L48.5328 27.2411H49.823C49.8025 27.312 49.7919 27.3854 49.7915 27.4591C49.7989 27.7076 49.8998 27.9444 50.0745 28.123C50.2491 28.3017 50.4849 28.4093 50.7356 28.4247H52.4349C52.48 28.4253 52.5238 28.41 52.5584 28.3814C52.593 28.3528 52.6162 28.3129 52.6237 28.2689C52.7496 27.5837 52.844 26.8673 52.9384 26.1509C52.9827 25.7752 52.8815 25.3967 52.6552 25.0919V25.0608ZM45.0083 24.0952L44.8824 24.0329L43.4978 23.9706C43.0763 23.9923 42.6773 24.1658 42.3759 24.4583C42.0745 24.7509 41.8916 25.1424 41.8615 25.5591C41.5468 28.1755 41.1377 30.8853 40.6657 33.8444H39.3754C39.8475 30.9476 40.2251 28.2689 40.5398 25.6837C40.6089 25.2238 40.4962 24.7552 40.2251 24.3755C40.095 24.2194 39.9316 24.0938 39.7466 24.0076C39.5616 23.9214 39.3596 23.8769 39.1552 23.8771H37.9279C37.8828 23.8765 37.839 23.8919 37.8044 23.9204C37.7698 23.949 37.7466 23.9889 37.7391 24.0329C37.33 27.428 36.8265 31.0411 36.1657 35.4017C36.0841 35.8577 36.1857 36.3271 36.4489 36.7099C36.5659 36.8747 36.7214 37.0089 36.9023 37.1011C37.0831 37.1934 37.2839 37.2408 37.4873 37.2394H37.5503L41.7671 37.0526C42.5852 37.0214 43.3405 36.2739 43.4978 35.3706C44.1901 31.4149 44.7251 27.8017 45.1342 24.3132C45.1365 24.2728 45.1255 24.2327 45.1028 24.199C45.0801 24.1653 45.0469 24.1398 45.0083 24.1263V24.0952ZM14.4524 28.4558H16.2146C16.2597 28.4565 16.3035 28.4411 16.3381 28.4125C16.3727 28.384 16.3959 28.3441 16.4034 28.3001C16.5293 27.4903 16.6552 26.6804 16.781 25.8706C16.8268 25.645 16.8252 25.4124 16.7765 25.1874C16.7278 24.9624 16.6329 24.7497 16.4978 24.5624C16.3725 24.4009 16.2101 24.2714 16.0239 24.1847C15.8378 24.0981 15.6335 24.0567 15.4279 24.064C14.358 24.064 12.5328 24.1263 11.1167 24.2821C10.33 24.3755 9.323 25.123 9.13419 25.9952C8.56775 29.1722 8.00132 33.5329 8.00132 34.623C7.98518 35.0876 8.11731 35.5453 8.37894 35.9312C8.68965 36.2412 9.10327 36.4293 9.54328 36.4608C10.9499 36.6749 12.3688 36.7998 13.7915 36.8345H13.8545C14.7671 36.8345 15.2706 36.3362 15.4279 35.3394C15.5852 34.3427 16.0887 30.387 16.1202 30.0755C16.1519 29.9371 16.1543 29.7937 16.1272 29.6543C16.1001 29.5149 16.0442 29.3826 15.9629 29.2657C15.8638 29.1585 15.7417 29.0749 15.6055 29.021C15.4692 28.967 15.3225 28.9442 15.1761 28.9542H12.4069C12.3618 28.9536 12.318 28.9689 12.2834 28.9975C12.2488 29.0261 12.2256 29.0659 12.2181 29.1099C12.2181 29.1099 12.0293 30.2624 11.9664 30.7919C11.9454 30.9346 11.9542 31.0801 11.9921 31.2193C12.0299 31.3586 12.0961 31.4887 12.1866 31.6017C12.2613 31.6994 12.356 31.7804 12.4644 31.8394C12.5729 31.8984 12.6927 31.9342 12.816 31.9444H12.9419L12.6272 33.6575L11.0538 33.564C11.1796 32.4739 11.7775 28.1755 11.9664 27.2722H13.5083C13.4768 27.3968 13.4768 27.5214 13.4768 27.5214C13.4768 27.7775 13.5796 28.0231 13.7626 28.2042C13.9455 28.3853 14.1936 28.487 14.4524 28.487V28.4558ZM24.4594 34.0001H23.0433C23.1692 32.8165 23.83 28.0509 23.9873 27.0542H25.4034C25.2146 28.2689 24.5852 32.9722 24.4594 34.0001ZM28.2671 24.3132C28.1452 24.146 27.9842 24.0105 27.7978 23.9183C27.6115 23.8261 27.4054 23.7799 27.1971 23.7837L22.9489 23.846C22.1307 23.8771 21.3754 24.6247 21.2181 25.5591C20.7146 29.0476 20.274 32.2247 19.9279 35.246C19.8678 35.71 19.9919 36.1789 20.274 36.5542C20.3994 36.7201 20.5604 36.8564 20.7454 36.9534C20.9304 37.0503 21.1349 37.1055 21.344 37.1148L25.5608 37.2394H25.5922C26.3789 37.2394 27.1027 36.523 27.2286 35.5886C27.6692 32.1624 28.1412 28.7673 28.5817 25.6214C28.6476 25.1617 28.5352 24.6943 28.2671 24.3132ZM36.3859 24.3444C36.2656 24.1733 36.1057 24.0332 35.9196 23.9356C35.7335 23.8381 35.5266 23.786 35.316 23.7837H32.6097L32.7356 22.787C32.8065 22.3172 32.694 21.8383 32.4209 21.4476C32.3025 21.2747 32.143 21.1331 31.9565 21.0354C31.77 20.9376 31.562 20.8867 31.351 20.887H30.1552C30.1101 20.8864 30.0663 20.9017 30.0317 20.9303C29.997 20.9588 29.9739 20.9987 29.9664 21.0427C29.7461 22.6001 28.4244 32.1935 28.0153 35.464C27.9495 35.9238 28.0619 36.3912 28.33 36.7722C28.4503 36.9433 28.6102 37.0834 28.7963 37.1809C28.9824 37.2785 29.1894 37.3306 29.3999 37.3329H33.6167C34.4349 37.3329 35.1587 36.5853 35.316 35.6198C35.8824 31.7886 36.323 28.6427 36.7006 25.7149C36.7833 25.2348 36.6701 24.7419 36.3859 24.3444ZM32.6097 34.0624H31.2251L32.2006 26.9919H33.6167C33.4279 28.2378 32.7356 33.0657 32.6097 34.0624Z" fill="#B43F26"/>
<path d="M20.5887 22.8802C19.7391 27.9261 19.1412 32.4114 18.7006 36.6163L17.6622 36.554C17.5019 36.5447 17.3457 36.5009 17.2043 36.4255C17.063 36.3502 16.94 36.2452 16.844 36.1179C16.6327 35.8306 16.5424 35.4732 16.5922 35.1212C17.0328 30.9163 17.6936 26.4933 18.5748 21.6032L19.7076 21.5409C19.8426 21.537 19.9765 21.5662 20.0973 21.626C20.2181 21.6858 20.3221 21.7743 20.3999 21.8835C20.4968 22.0288 20.5635 22.1918 20.5959 22.363C20.6283 22.5342 20.6259 22.71 20.5887 22.8802ZM52.5922 26.1818C52.4978 26.8359 52.4034 27.49 52.309 28.113H50.7671C50.614 28.105 50.4699 28.0392 50.3645 27.929C50.2591 27.8189 50.2004 27.6729 50.2006 27.5212C50.2086 27.405 50.2297 27.2901 50.2636 27.1786C50.2702 27.1519 50.2708 27.1241 50.2654 27.0972C50.2599 27.0703 50.2486 27.0449 50.2321 27.0228C50.2161 26.9953 50.1932 26.9723 50.1657 26.9559C50.1381 26.9396 50.1069 26.9304 50.0748 26.9294H48.344C48.2989 26.9288 48.2551 26.9441 48.2205 26.9727C48.1859 27.0013 48.1627 27.0411 48.1552 27.0851L47.809 29.1097C47.7994 29.1637 47.8106 29.2193 47.8405 29.2655L47.9978 29.3278H50.8929C51.0418 29.3216 51.1901 29.3493 51.3265 29.4087C51.4629 29.4681 51.5837 29.5576 51.6797 29.6704C51.7855 29.7932 51.8605 29.939 51.8988 30.096C51.9371 30.2529 51.9375 30.4165 51.8999 30.5737C51.7575 31.9719 51.505 33.357 51.1447 34.7163C50.9559 35.4327 50.295 36.0868 49.6657 36.1491C47.7146 36.3671 45.4489 36.4917 45.4489 36.4917C45.3039 36.5033 45.1583 36.478 45.0261 36.418C44.8938 36.358 44.7794 36.2654 44.6936 36.1491C44.6002 36.0139 44.5352 35.8615 44.5028 35.7009C44.4704 35.5404 44.471 35.3749 44.5048 35.2146L44.8825 32.9409L46.5188 32.8786C46.5891 32.8825 46.6579 32.9002 46.7213 32.9306C46.7847 32.9609 46.8414 33.0033 46.8882 33.0554C46.9349 33.1075 46.9709 33.1682 46.9939 33.2341C47.0169 33.3 47.0266 33.3697 47.0223 33.4392C47.0108 33.5755 46.9898 33.7108 46.9594 33.8441C46.959 33.8729 46.9643 33.9015 46.9751 33.9282C46.9859 33.955 47.002 33.9793 47.0223 33.9999L47.1797 34.0622L48.9104 33.9687C48.9555 33.9694 48.9993 33.954 49.0339 33.9254C49.0686 33.8969 49.0917 33.857 49.0992 33.813C49.1622 33.4704 49.351 32.3802 49.4454 31.8507C49.4551 31.7967 49.4438 31.7411 49.4139 31.695L49.2566 31.6327H46.4244C46.2752 31.6391 46.1264 31.6127 45.9888 31.5552C45.8513 31.4977 45.7283 31.4106 45.6289 31.3003C45.5295 31.19 45.4561 31.0592 45.4141 30.9174C45.3721 30.7755 45.3625 30.6262 45.386 30.4802C45.5118 29.3278 46.0468 25.995 46.0783 25.7769C46.1011 25.4569 46.2419 25.1563 46.474 24.9324C46.7061 24.7084 47.0132 24.5767 47.337 24.5622C48.7145 24.5771 50.0903 24.6602 51.4594 24.8114C51.8042 24.8668 52.1172 25.0438 52.3405 25.3097C52.4415 25.4297 52.5161 25.5693 52.5594 25.7195C52.6028 25.8696 52.614 26.0271 52.5922 26.1818ZM43.0573 35.2769C42.9314 35.9933 42.302 36.6163 41.6727 36.6474L37.4559 36.8343H37.4244C37.2823 36.8344 37.1422 36.8005 37.0162 36.7354C36.8901 36.6703 36.7819 36.576 36.7006 36.4605C36.5113 36.1644 36.4437 35.8077 36.5118 35.4638C37.1727 31.1655 37.6762 27.5835 38.0853 24.2507H39.1552C39.3088 24.2543 39.4596 24.2927 39.596 24.3628C39.7324 24.433 39.8507 24.5332 39.9419 24.6556C40.1582 24.9526 40.2486 25.3215 40.1936 25.6835C39.8475 28.331 39.4699 31.072 38.9978 34.0622C38.9912 34.0888 38.9906 34.1166 38.996 34.1435C39.0015 34.1704 39.0128 34.1958 39.0293 34.2179L39.1552 34.2802L40.823 34.2179C40.8681 34.2185 40.9119 34.2032 40.9465 34.1746C40.9812 34.1461 41.0043 34.1062 41.0118 34.0622C41.4839 31.072 41.8929 28.2999 42.2391 25.6212C42.2538 25.2924 42.3902 24.9806 42.6224 24.745C42.8545 24.5095 43.1662 24.3668 43.4978 24.3441L44.6622 24.4064C44.2531 27.8638 43.7496 31.4146 43.0573 35.2769ZM11.8405 26.8982C11.7954 26.8976 11.7516 26.913 11.717 26.9415C11.6824 26.9701 11.6592 27.01 11.6517 27.054C11.5573 27.49 10.7391 33.0655 10.7076 33.7507C10.703 33.7777 10.7045 33.8054 10.7119 33.8318C10.7193 33.8582 10.7324 33.8827 10.7504 33.9035C10.7685 33.9243 10.7909 33.9409 10.8161 33.9522C10.8413 33.9635 10.8688 33.9691 10.8964 33.9687L12.816 34.0933C12.8611 34.0939 12.9049 34.0786 12.9395 34.05C12.9742 34.0215 12.9973 33.9816 13.0048 33.9376C13.0992 33.4081 13.351 32.0687 13.3825 31.8196C13.3891 31.7929 13.3897 31.7651 13.3843 31.7382C13.3788 31.7113 13.3675 31.6859 13.351 31.6638L13.2251 31.6015H12.8475C12.7801 31.595 12.7146 31.5751 12.6552 31.543C12.5957 31.5109 12.5434 31.4672 12.5013 31.4146C12.4419 31.3467 12.3973 31.2674 12.3702 31.1817C12.3432 31.0959 12.3342 31.0056 12.344 30.9163C12.4069 30.3868 12.5013 29.9196 12.5643 29.39H15.1762C15.2665 29.3784 15.3583 29.3863 15.4452 29.4132C15.5321 29.4401 15.6121 29.4853 15.6797 29.5458C15.7281 29.6185 15.7614 29.7 15.7776 29.7855C15.7938 29.8711 15.7926 29.959 15.7741 30.0441C15.7426 30.3556 15.302 33.9687 15.0818 35.2769C14.9559 36.1179 14.5783 36.4605 13.8545 36.4605H13.7915C12.3893 36.4122 10.9914 36.2769 9.60623 36.0556C9.26441 36.0271 8.94256 35.8843 8.69364 35.6507C8.4859 35.3476 8.37615 34.9891 8.37896 34.6228C8.37896 33.6884 8.88246 29.4835 9.51183 26.0884C9.6377 25.4032 10.4874 24.7802 11.1482 24.7179C12.5643 24.5622 14.358 24.4999 15.4279 24.4999C15.5771 24.4913 15.7262 24.5179 15.8629 24.5774C15.9997 24.637 16.1202 24.7278 16.2146 24.8425C16.3115 24.9878 16.3782 25.1509 16.4106 25.322C16.443 25.4932 16.4406 25.669 16.4034 25.8392L16.0258 28.0818H14.4524C14.2993 28.0739 14.1552 28.008 14.0498 27.8979C13.9444 27.7877 13.8857 27.6418 13.886 27.49L13.9804 26.8671H11.8405V26.8982ZM25.6237 26.6491H23.83C23.7849 26.6484 23.7411 26.6638 23.7065 26.6924C23.6719 26.7209 23.6487 26.7608 23.6412 26.8048C23.5468 27.3032 22.7286 33.4081 22.6657 34.1556C22.659 34.1823 22.6584 34.21 22.6639 34.237C22.6693 34.2639 22.6807 34.2893 22.6971 34.3114L22.823 34.3737H24.5853C24.6303 34.3743 24.6741 34.3589 24.7088 34.3304C24.7434 34.3018 24.7666 34.2619 24.7741 34.2179C24.8055 33.7196 25.6552 27.6146 25.7811 26.8671C25.7877 26.8404 25.7883 26.8127 25.7829 26.7858C25.7774 26.7588 25.7661 26.7334 25.7496 26.7114L25.6237 26.6491ZM28.2041 25.59C27.7636 28.7359 27.2915 32.1622 26.851 35.5573C26.7566 36.3048 26.1901 36.8966 25.5922 36.8966H25.5608L21.3755 36.772C21.2147 36.7649 21.0577 36.722 20.916 36.6465C20.7744 36.571 20.6518 36.4648 20.5573 36.3359C20.3489 36.0472 20.259 35.691 20.3055 35.3392C20.6517 32.2868 21.0608 29.1409 21.6272 25.6212C21.7531 24.8737 22.351 24.2507 23.0118 24.2507L27.2601 24.1884C27.4099 24.1894 27.5571 24.2268 27.6888 24.2974C27.8206 24.368 27.9327 24.4697 28.0153 24.5933C28.1962 24.8927 28.2632 25.2462 28.2041 25.59ZM36.323 25.6212C35.9454 28.5491 35.5048 31.695 34.9384 35.5261C34.8125 36.3048 34.2461 36.8966 33.6167 36.8966H29.3999C29.2458 36.8954 29.0942 36.8581 28.9574 36.7877C28.8207 36.7173 28.7027 36.6159 28.6132 36.4917C28.406 36.1794 28.3272 35.8006 28.3929 35.4327C28.802 32.1933 30.1237 22.7245 30.3125 21.1982H31.3825C31.5317 21.2018 31.678 21.2404 31.8093 21.3108C31.9406 21.3812 32.0531 21.4814 32.1377 21.6032C32.345 21.9154 32.4238 22.2943 32.358 22.6622L32.2321 23.9081C32.2255 23.9347 32.2249 23.9625 32.2303 23.9894C32.2357 24.0163 32.2471 24.0417 32.2636 24.0638L32.3894 24.1261H35.316C35.4701 24.1273 35.6218 24.1646 35.7585 24.235C35.8953 24.3054 36.0132 24.4068 36.1027 24.531C36.3291 24.8471 36.4196 25.2391 36.3545 25.6212H36.323ZM33.8055 26.6491H32.0118C31.9668 26.6484 31.9229 26.6638 31.8883 26.6924C31.8537 26.7209 31.8305 26.7608 31.823 26.8048L30.816 34.2179C30.8094 34.2446 30.8088 34.2723 30.8142 34.2993C30.8196 34.3262 30.831 34.3516 30.8475 34.3737L30.9734 34.4359H32.7356C32.7807 34.4366 32.8245 34.4212 32.8591 34.3927C32.8937 34.3641 32.9169 34.3242 32.9244 34.2802C32.9873 33.8441 33.8685 27.5835 33.9629 26.8671C33.9695 26.8404 33.9701 26.8127 33.9647 26.7858C33.9592 26.7588 33.9479 26.7334 33.9314 26.7114L33.8055 26.6491Z" fill="#F07422"/>
<path d="M25.6234 17.6475C24.7343 17.8682 23.8616 18.1492 23.0115 18.4885C23.5113 18.7204 24.0264 18.9181 24.5535 19.0803C24.9626 18.5196 25.3402 18.0213 25.6234 17.6475ZM39.0605 18.5508C38.1412 18.1702 37.1945 17.8578 36.2283 17.6163C36.5115 17.9901 36.9206 18.5196 37.3926 19.1737C37.962 19.0156 38.5193 18.8178 39.0605 18.5819V18.5508ZM36.9206 19.2983C36.2598 18.3639 35.7248 17.7098 35.5045 17.4295C34.0949 17.1553 32.6614 17.0197 31.2248 17.0245V19.2672C31.9587 19.2734 32.6688 19.526 33.2388 19.9836C34.4833 19.8746 35.7155 19.6557 36.9206 19.3295V19.2983ZM24.994 19.236C26.2489 19.5846 27.5344 19.8141 28.8332 19.9213C29.3682 19.2049 30.3437 19.2049 30.7213 19.2049H30.7843V17.0245C29.293 17.0299 27.8062 17.1865 26.3472 17.4918C26.064 17.8344 25.5919 18.4262 25.0255 19.2672L24.994 19.236ZM28.2982 22.0704C28.3612 21.7278 28.4241 21.2918 28.4556 20.918C28.4766 20.7372 28.5188 20.5595 28.5815 20.3885C27.271 20.2733 25.9748 20.0333 24.7108 19.6721C24.1622 20.4858 23.658 21.328 23.2003 22.195L28.2982 22.0704ZM38.2108 38.859L36.1024 38.9213L31.2248 38.9836V39.7934C33.2214 39.7853 35.2104 40.0366 37.1409 40.5409C37.4871 40.0426 37.8332 39.4819 38.2108 38.859ZM33.6794 20.3885C34.0517 20.8783 34.2804 21.4603 34.3402 22.0704H35.9136L38.6829 22.1327C38.2451 21.2976 37.7619 20.4866 37.2353 19.7032C36.0722 20.0327 34.8824 20.2619 33.6794 20.3885ZM39.1864 22.195L44.8192 22.4131C43.3487 20.9005 41.5961 19.6841 39.6584 18.8311C39.0226 19.1576 38.3593 19.4286 37.6759 19.6409C38.2259 20.4645 38.7301 21.3171 39.1864 22.195ZM36.2283 42.5655C37.1502 42.3388 38.0546 42.0473 38.9346 41.6934C38.4146 41.4585 37.8782 41.2607 37.3297 41.1016C36.8891 41.6934 36.5115 42.1918 36.2283 42.5655ZM22.571 22.195H22.6968C23.1717 21.2845 23.697 20.4007 24.2703 19.5475C23.6405 19.3402 23.0298 19.0797 22.4451 18.7688C21.831 19.0374 21.2322 19.3389 20.6514 19.6721C21.0544 19.7893 21.422 20.0033 21.7213 20.295C22.2057 20.8201 22.5039 21.4871 22.571 22.195ZM37.5815 40.6655C38.2328 40.8695 38.8646 41.13 39.4696 41.4442C41.1265 40.7241 42.6563 39.7461 44.001 38.5475L38.7143 38.8278C38.3367 39.5131 37.9591 40.136 37.5815 40.6655ZM24.4591 38.8901H23.6724C24.05 39.5131 24.3961 40.1049 24.7423 40.6032C26.7105 40.0666 28.7427 39.7942 30.7843 39.7934V38.9836H30.029C27.9836 38.9836 26.1584 38.9524 24.4591 38.8901ZM31.2248 40.2295V43.1885C32.6634 43.1724 34.097 43.016 35.5045 42.7213C35.7563 42.4098 36.2598 41.7868 36.8577 40.9459C35.018 40.4735 33.1254 40.2328 31.2248 40.2295ZM23.1374 38.8278L17.9766 38.6098C19.3161 39.7836 20.8349 40.7402 22.4766 41.4442C23.0621 41.1435 23.6727 40.8934 24.3017 40.6967C23.9241 40.1672 23.515 39.5131 23.1374 38.8278ZM23.043 41.6934C23.883 42.0311 24.7451 42.312 25.6234 42.5344C25.3402 42.1918 24.9626 41.6934 24.5535 41.1016C24.0369 41.2645 23.5322 41.4622 23.043 41.6934ZM26.3472 42.6901C27.8061 42.9958 29.293 43.1524 30.7843 43.1573V40.2295C28.8401 40.2313 26.9044 40.4826 25.0255 40.977C25.6234 41.818 26.0954 42.4098 26.3472 42.6901Z" fill="#0A9648"/>
<path d="M31.0047 15.6852C37.5502 15.6852 43.3089 18.4262 46.5187 22.5066H47.4313C44.1586 18.0525 38.0222 15 31.0047 15C23.9873 15 17.9453 17.9902 14.6411 22.4443H15.5537C18.795 18.3951 24.5222 15.6852 31.0047 15.6852ZM31.0047 44.4656C24.8999 44.4656 19.4873 42.0984 16.1831 38.4852L15.2075 38.4229C18.6061 42.5033 24.4278 45.182 31.0047 45.182C37.5817 45.182 43.4663 42.4721 46.8649 38.3607L45.8894 38.4229C42.5852 42.0984 37.1411 44.4967 31.0047 44.4967V44.4656Z" fill="#0A9648"/>
</svg>
