<svg width="60" height="60" viewBox="0 0 60 60" fill="none" xmlns="http://www.w3.org/2000/svg">
<path fill-rule="evenodd" clip-rule="evenodd" d="M13.3844 27.7358L13.3306 27.7788L13.9876 28.7996L14.0392 28.7491C14.4107 28.3836 15.0546 28.1379 16.0078 28.1379C17.3269 28.1379 18.0494 28.6054 18.2841 29.2141H15.9454V30.3557H18.198C17.8974 30.8724 17.1922 31.2505 16.0077 31.2505C15.0568 31.2505 14.4129 31.0048 14.0412 30.6392L13.9896 30.5889L13.3316 31.612L13.3866 31.6548C13.9766 32.1148 14.8457 32.3934 16.0077 32.3934C17.1695 32.3934 18.0957 32.0972 18.6857 31.6108C19.278 31.1219 19.5666 30.4439 19.5666 29.6966C19.5666 28.9494 19.277 28.2703 18.6847 27.7824C18.0948 27.2963 17.2062 27 16.0078 27C14.8091 27 13.9746 27.2784 13.3845 27.7384L13.3844 27.7358ZM5 32.1653L5.02052 32.0745C5.38757 30.4338 5.87442 29.2216 6.5065 28.4189C7.1409 27.6125 7.91936 27.223 8.85954 27.223C9.79957 27.223 10.5772 27.6137 11.2124 28.4189C11.8445 29.2216 12.3324 30.4352 12.6986 32.0771L12.7189 32.1679H11.5217L11.5098 32.115C11.1264 30.5258 10.6698 29.6362 10.209 29.1435C9.75015 28.6534 9.28179 28.5512 8.85968 28.5512C8.43743 28.5512 7.96908 28.6545 7.51142 29.1435C7.05043 29.6362 6.59277 30.5246 6.21055 32.1138L6.19754 32.1667H5V32.1653ZM40.2997 32.1679L40.3202 32.0771C40.6874 30.4352 41.1741 29.2228 41.8062 28.4189C42.4416 27.6125 43.2202 27.223 44.1591 27.223C45.0983 27.223 45.8779 27.6137 46.5121 28.4201C47.1442 29.2242 47.6309 30.4364 47.9983 32.0771L48.0188 32.1679H46.8211L46.8082 32.115C46.426 30.5258 45.9682 29.6362 45.5074 29.1435C45.0497 28.6534 44.5814 28.5512 44.1591 28.5512C43.737 28.5512 43.2686 28.6545 42.811 29.1435C42.3488 29.6362 41.8923 30.5258 41.509 32.1148L41.4973 32.1677L40.2997 32.1679ZM19.8749 28.3647V27.223H26.1142V28.3649H23.591V32.1655H22.3978V28.3647H19.8749ZM38.3808 29.2128C38.3743 29.0074 38.3441 28.8548 38.2957 28.7416C38.2507 28.6284 38.1753 28.5358 38.0814 28.4781C37.9909 28.4227 37.8832 28.3925 37.7626 28.3775C37.6409 28.3621 37.5107 28.3621 37.3772 28.3621H33.8525V27.2218H37.4396V27.2243C37.6851 27.2243 37.9338 27.2267 38.1675 27.2557C38.4217 27.2873 38.665 27.3503 38.875 27.4813C39.0861 27.6125 39.2627 27.8102 39.3854 28.104C39.5071 28.3962 39.575 28.7818 39.575 29.2858V32.1639H35.5077C34.9811 32.1639 34.4373 32.1639 34.0259 31.9838C33.8171 31.8918 33.6382 31.7533 33.5121 31.5402C33.3873 31.3273 33.3184 31.0488 33.3184 30.6883C33.3184 30.328 33.3873 30.0482 33.5121 29.8365C33.6382 29.6236 33.8171 29.4851 34.0259 29.3929C34.4373 29.2128 34.9811 29.2128 35.5077 29.2128H38.3808ZM35.5162 31.0262H38.3818V30.357H35.5162C35.2471 30.357 34.9886 30.357 34.7958 30.4062C34.7 30.4301 34.6289 30.4654 34.5815 30.5107C34.5588 30.5323 34.5406 30.5598 34.5284 30.591C34.5163 30.6223 34.5105 30.6565 34.5116 30.6909C34.5116 30.7716 34.5374 30.8271 34.5815 30.8711C34.6289 30.9178 34.7 30.9518 34.7958 30.9757C34.9886 31.025 35.2471 31.025 35.5162 31.025V31.0262ZM52.7386 29.2128V29.2153H49.9366V27.223H48.7434V32.1653H52.8107C53.3373 32.1653 53.8812 32.1653 54.2925 31.9851C54.5014 31.893 54.6802 31.7545 54.8051 31.5416C54.9311 31.3286 55 31.0502 55 30.6897C55 30.3292 54.9311 30.0494 54.8051 29.8379C54.6802 29.625 54.5014 29.4863 54.2925 29.3943C53.8812 29.2141 53.3373 29.2141 52.8107 29.2141H52.7386V29.2128ZM52.8012 31.0262H49.9366V30.357H52.8012C53.0714 30.357 53.3298 30.357 53.5215 30.4062C53.6173 30.4301 53.6895 30.4654 53.7369 30.5107C53.7809 30.5548 53.8058 30.6102 53.8058 30.6909C53.8058 30.7716 53.7809 30.8271 53.7369 30.8711C53.6895 30.9178 53.6173 30.9518 53.5215 30.9757C53.3298 31.025 53.0714 31.025 52.8012 31.025V31.0262ZM26.8055 27.223L29.2715 31.5718L27.8942 34H29.3178L33.1611 27.223H31.7386L29.9445 30.3848L28.1516 27.2232L26.8055 27.223Z" fill="white"/>
</svg>
