<svg width="60" height="60" viewBox="0 0 60 60" fill="none" xmlns="http://www.w3.org/2000/svg">
<path fill-rule="evenodd" clip-rule="evenodd" d="M12 22.7618C12 19.8946 13.1331 17.1945 15.1939 15.1577C17.2528 13.1216 19.9825 12 22.8789 12H48V17.4688H22.8789C21.4591 17.4688 20.1177 18.0215 19.1017 19.0243C18.0876 20.0296 17.5269 21.3575 17.5269 22.7618L17.4953 31.9413C17.2393 34.3794 15.3814 36.3459 12.9781 36.7086L12 36.8571V22.7618ZM12 48V42.5307H37.1211C38.5409 42.5307 39.8823 41.9781 40.8947 40.9728C41.9133 39.9711 42.4713 38.6445 42.4713 37.2378L42.4758 28.5258C42.4758 25.9312 44.4302 23.6812 47.0228 23.2898L48 23.1429V37.2378C48 40.1052 46.8669 42.8043 44.8052 44.841C42.7472 46.8786 40.0202 48 37.1211 48H12ZM33.3169 36.8571V29.8884L29.9995 33.7017L26.6813 29.8884V36.8571H22.2857V23.1429H26.4496L29.9995 27.552L33.5486 23.1429H37.7143V36.8571H33.3169Z" fill="white"/>
</svg>
