<svg width="60" height="60" viewBox="0 0 60 60" fill="none" xmlns="http://www.w3.org/2000/svg">
<path fill-rule="evenodd" clip-rule="evenodd" d="M33.1278 11L33.128 20.0406L33.1342 20.1221C33.1509 20.2281 33.2011 20.3228 33.2847 20.4064C33.3516 20.4733 33.4255 20.5187 33.5066 20.5428L33.5689 20.5569L33.6503 20.5631H36.5136L36.6026 20.5573C36.7175 20.5417 36.8165 20.4949 36.9002 20.4168C36.9699 20.3518 37.0164 20.2744 37.0396 20.1846L37.0527 20.1149L37.0569 20.0406L37.0578 11.0096L37.3536 11.0161L37.9175 11.0341L38.446 11.0589L38.9411 11.0903C39.3403 11.1193 39.7071 11.1552 40.0467 11.1979L40.0433 11.2441L40.0299 11.587L40.0189 12.148L40.0128 13.0747L40.0131 13.6767L40.0186 14.4112L40.0265 14.8492L40.0335 15.0875C40.1032 16.9545 40.7092 18.3687 41.8517 19.3301C42.9943 20.2914 44.5547 20.7721 46.5332 20.7721C47.3886 20.7721 48.165 20.6823 48.8629 20.5026C48.8838 20.7192 48.9023 20.9462 48.9184 21.1846L48.9476 21.677L48.9701 22.2019C48.9735 22.2922 48.9764 22.3839 48.9791 22.4771L48.9922 23.0542C48.9954 23.2527 48.9976 23.4574 48.9988 23.6686L49 24.3555C48.2626 24.137 47.4403 24.0277 46.5332 24.0277C44.5826 24.0277 43.0257 24.5258 41.8622 25.522C40.7473 26.4767 40.141 27.8185 40.0433 29.5473L40.0299 29.8902L40.0189 30.4513L40.0128 31.3779L40.0131 31.98L40.0186 32.7144L40.0265 33.1525L40.0335 33.3907C40.1032 35.2577 40.7092 36.6718 41.8517 37.6333C42.9943 38.5947 44.5547 39.0754 46.5332 39.0754C47.412 39.0754 48.2076 38.9805 48.9201 38.7909C48.7757 40.9493 48.4368 42.1755 47.9195 43.2735L47.7865 43.5459L47.6461 43.8157C46.7631 45.467 45.467 46.7628 43.8159 47.646C43.114 48.0213 42.4148 48.322 41.496 48.5438L41.4963 42.9225L41.4922 42.8481C41.4787 42.7282 41.4313 42.6275 41.3501 42.5464C41.2849 42.4813 41.2076 42.438 41.1178 42.4163L41.0481 42.4041L40.9738 42.4H35.352L35.0784 42.4037C33.996 42.4329 33.0562 42.6372 32.2589 43.0165C31.3951 43.4275 30.7402 44.0024 30.2944 44.7408C29.8484 45.4792 29.6255 46.3222 29.6255 47.2696C29.6255 47.8968 29.7192 48.4736 29.9064 49L23.9908 48.9995C23.7892 48.9995 23.5934 48.9985 23.403 48.9966L22.848 48.9883L22.3243 48.9742C22.2396 48.9715 22.1561 48.9685 22.0738 48.9653L21.5942 48.9431L21.1421 48.9153C20.9958 48.9051 20.8538 48.8941 20.7159 48.8821L20.3141 48.8435C19.859 48.7953 19.4505 48.7362 19.0775 48.6662L18.7664 48.6036L18.4711 48.5356C18.3752 48.5122 18.2816 48.4878 18.1902 48.4626L17.9221 48.3843C17.7909 48.3438 17.664 48.3015 17.5405 48.2573L17.2977 48.1661L17.3043 47.9593C17.3601 46.2038 18.1751 45.326 19.7495 45.326C20.4044 45.326 20.9303 45.4619 21.3274 45.7335L21.5338 45.8763C21.8533 46.1019 22.2076 46.3867 22.4733 46.816L22.5584 46.9646C22.7939 47.41 23.0199 47.468 23.2008 47.4658L23.281 47.4617L23.3539 47.4563C23.3655 47.4558 23.3766 47.4553 23.3875 47.4553C23.4111 47.4553 23.4507 47.4441 23.5061 47.4217L23.6011 47.3799L23.7883 47.2857L24.0291 47.1539L24.3235 46.9841L24.7993 46.6995L25.2188 46.4418C25.515 46.2585 25.7402 45.9293 25.6899 45.4095C25.6397 44.8898 24.4707 43.7743 23.3875 43.1415L23.1354 42.9962L22.8955 42.8635C22.1102 42.4418 21.4393 42.2262 19.9935 42.1571L19.7707 42.1477L19.5272 42.1423L19.2878 42.144C17.5469 42.1806 16.1322 42.7641 15.0786 43.6644C14.4404 44.2099 13.9686 44.883 13.6633 45.6838C13.1589 45.1256 12.7211 44.5013 12.3544 43.8157L12.214 43.5459L12.081 43.2735C11.5637 42.1755 11.2249 40.9493 11.0806 38.7909C11.7937 38.9806 12.5895 39.0754 13.4675 39.0754C15.446 39.0754 17.0029 38.5947 18.1385 37.6333C19.274 36.6718 19.8766 35.2577 19.9462 33.3907L19.973 32.5413L19.9843 32.0184L19.988 31.5934L19.9849 31.2176L19.9659 30.3912L19.9462 29.775C19.8905 27.9359 19.2809 26.5182 18.1176 25.522C16.9542 24.5258 15.4042 24.0277 13.4675 24.0277C12.5598 24.0277 11.7373 24.1355 11 24.3513L11.0035 23.4291L11.0112 22.8979L11.0239 22.3952L11.0416 21.9198L11.0643 21.4703L11.092 21.0455C11.097 20.9766 11.1023 20.9088 11.1077 20.8418L11.1428 20.4513L11.1829 20.0821L11.2278 19.7328C11.2357 19.6761 11.2437 19.6203 11.252 19.5652L11.3042 19.2432C11.3224 19.1387 11.3414 19.037 11.3612 18.9378L11.423 18.6476L11.4896 18.3713L11.5609 18.1076C11.5732 18.0647 11.5856 18.0221 11.5983 17.9801L11.6766 17.7327C11.6901 17.6923 11.7037 17.6522 11.7176 17.6125L11.8029 17.3785L11.8929 17.1516C11.9083 17.1143 11.9239 17.0773 11.9396 17.0405L12.0365 16.8219L12.1379 16.6073L12.2439 16.3951L12.3544 16.1841C13.2375 14.5328 14.5335 13.2369 16.1848 12.3537L16.5016 12.1897L16.7148 12.086L16.9312 11.9868C16.9677 11.9706 17.0043 11.9547 17.0411 11.9389L17.2648 11.8466C17.3026 11.8316 17.3407 11.8168 17.3791 11.8022L17.6131 11.7169L17.8557 11.6362C17.9382 11.6101 18.0223 11.5847 18.1082 11.5602L18.3719 11.4889L18.6482 11.4223L18.9384 11.3605C19.0375 11.3407 19.1393 11.3217 19.2438 11.3035L19.5657 11.2513C19.6208 11.243 19.6767 11.2349 19.7333 11.2271L20.0827 11.1821L20.4519 11.1421L20.8424 11.107L21.2554 11.0768L21.6924 11.0516L22.1547 11.0314L22.6436 11.0162L23.1604 11.006L23.7064 11.0009L25.5813 11C25.5667 12.7326 25.4305 14.1073 25.1732 15.1298L25.1235 15.3174C24.817 16.4181 24.2945 17.0311 23.5561 17.1565C23.2687 17.214 23.0999 17.3473 23.0496 17.5565L23.0372 17.6291L23.0336 17.6999V20.0198L23.0382 20.0882C23.0537 20.2005 23.1079 20.3031 23.2008 20.3959C23.3122 20.5074 23.4376 20.5631 23.577 20.5631C25.1653 20.5353 26.374 20.2113 27.203 19.5913C28.032 18.9713 28.5997 18.0064 28.9062 16.6967C29.1827 15.515 29.3346 13.9023 29.3617 11.8586L29.3649 11.514L29.366 11H33.1278ZM37.5882 45.4095L37.5879 48.9771L36.9874 48.9914L36.3463 48.9986L35.2665 48.9997C34.7783 48.9724 34.4028 48.8241 34.1397 48.5549C33.8473 48.2554 33.7009 47.827 33.7009 47.2696C33.7009 46.7124 33.8542 46.2629 34.1608 45.9215C34.4135 45.6399 34.7471 45.4746 35.1612 45.4253L35.3021 45.4131L35.4356 45.4095H37.5882ZM29.9336 24.0277C27.9691 24.0277 26.4121 24.5188 25.2627 25.5011C24.1132 26.4834 23.5036 27.8802 23.434 29.6915L23.4275 29.9099L23.4165 30.634L23.4136 31.1905V31.9478L23.4222 32.9482L23.4306 33.3109L23.434 33.4116C23.5036 35.2646 24.1062 36.6718 25.2418 37.6333C26.3773 38.5947 27.9412 39.0754 29.9336 39.0754C31.1737 39.0754 32.2848 38.8734 33.2671 38.4693C34.2493 38.0653 35.0261 37.48 35.5973 36.7137C36.1685 35.9474 36.4681 35.0417 36.4959 33.9967C36.4959 33.8714 36.4506 33.7668 36.3602 33.6833C36.3057 33.6332 36.2452 33.5979 36.1783 33.5779L36.1093 33.5628L36.0362 33.5579H33.0684L32.9751 33.561C32.826 33.5717 32.7108 33.6089 32.6296 33.6728C32.5483 33.7367 32.4816 33.8465 32.4294 34.0023L32.3997 34.1013C32.2187 34.7701 31.9225 35.2438 31.5114 35.5225C31.1006 35.801 30.5745 35.9405 29.9336 35.9405C28.4085 35.9405 27.5958 35.1166 27.4959 33.4692L27.4844 33.1789L27.4749 32.7252L27.4683 31.9591L27.4691 30.9374L27.4786 30.1487L27.4884 29.796C27.5442 28.0403 28.3593 27.1626 29.9336 27.1626C30.5884 27.1626 31.1145 27.2985 31.5114 27.5701C31.9086 27.8418 32.2046 28.319 32.3997 29.0018C32.4694 29.2107 32.5495 29.3535 32.6401 29.4302C32.7005 29.4812 32.7841 29.5153 32.8908 29.5324L32.9753 29.5419L33.0684 29.5451H36.0362L36.1093 29.5402C36.2041 29.5268 36.2878 29.4867 36.3602 29.4197C36.4506 29.3362 36.4959 29.2317 36.4959 29.1063C36.4681 28.0614 36.1685 27.1556 35.5973 26.3893C35.0261 25.623 34.2493 25.0378 33.2671 24.6338C32.2848 24.2297 31.1737 24.0277 29.9336 24.0277ZM46.5332 27.1626C47.2576 27.1626 47.8359 27.3821 48.2678 27.8209C48.6997 28.2599 48.9296 28.9322 48.9574 29.8377L48.9888 30.8461L48.9981 31.3384V31.724L48.9851 32.3749L48.9574 33.2654C48.9296 34.1709 48.6997 34.8431 48.2678 35.2821C47.8359 35.7211 47.2576 35.9405 46.5332 35.9405C45.7948 35.9405 45.2095 35.7211 44.7776 35.2821C44.3745 34.8724 44.1473 34.2595 44.0963 33.4432L44.0841 33.1388L44.0746 32.6968L44.069 32.1608V30.913L44.0746 30.3895L44.0841 29.96L44.088 29.8377C44.1158 28.9322 44.3457 28.2599 44.7776 27.8209C45.2095 27.3821 45.7948 27.1626 46.5332 27.1626ZM13.4675 27.1626C14.192 27.1626 14.7702 27.3821 15.2021 27.8209C15.634 28.2599 15.8639 28.9322 15.8918 29.8377L15.9231 30.8461L15.9324 31.3384V31.724L15.9194 32.3749L15.8918 33.2654C15.8639 34.1709 15.634 34.8431 15.2021 35.2821C14.7702 35.7211 14.192 35.9405 13.4675 35.9405C12.729 35.9405 12.1439 35.7211 11.712 35.2821C11.3088 34.8724 11.0817 34.2595 11.0305 33.4432L11.0183 33.1388L11.0089 32.6968L11.0022 31.9612V31.1085L11.0089 30.3895L11.0183 29.96L11.0223 29.8377C11.0501 28.9322 11.28 28.2599 11.712 27.8209C12.1439 27.3821 12.729 27.1626 13.4675 27.1626ZM17.4208 16.6366C16.3204 16.6366 15.4188 17.5153 15.4341 18.6004C15.4188 19.7008 16.3204 20.5872 17.4208 20.5872C18.4677 20.5872 19.3923 19.7008 19.4075 18.6004C19.3923 17.5153 18.4677 16.6366 17.4208 16.6366ZM47.6461 16.1841C47.8118 16.494 47.963 16.8033 48.0992 17.1313C47.6897 17.469 47.1675 17.6372 46.5332 17.6372C45.7948 17.6372 45.2095 17.4178 44.7776 16.9789C44.3745 16.5692 44.1473 15.9563 44.0963 15.1401L44.0841 14.8356L44.0746 14.3936L44.069 13.8575L44.0686 12.6588C44.069 12.6027 44.0693 12.548 44.0698 12.4946C45.6007 13.3725 46.8089 14.6187 47.6461 16.1841Z" fill="white"/>
</svg>
