<svg width="60" height="60" viewBox="0 0 60 60" fill="none" xmlns="http://www.w3.org/2000/svg">
<path d="M26.3087 31.6032C27.003 31.6032 27.5001 31.2349 27.7329 30.7117L29.355 30.7094C29.0493 32.0139 27.9064 32.998 26.3087 32.998C24.4307 32.998 23.1807 31.64 23.1807 29.999C23.1807 28.358 24.4312 27 26.3087 27C27.9088 27 29.0531 27.9869 29.356 29.297H27.7353C27.5044 28.7706 27.0054 28.3995 26.3087 28.3995C25.3283 28.3995 24.7385 29.1333 24.7385 30.0013C24.7385 30.8693 25.3283 31.6032 26.3087 31.6032Z" fill="white"/>
<path fill-rule="evenodd" clip-rule="evenodd" d="M9.01128 32.8544H5V27.1453H8.63429C9.87383 27.1453 10.547 27.8861 10.547 28.7628C10.547 29.156 10.3402 29.558 10.0228 29.8623C10.4907 30.0992 10.8911 30.6321 10.8911 31.1884C10.8911 32.1666 10.0964 32.8544 9.01128 32.8544ZM6.4717 31.7066H8.81074C8.88889 31.7092 8.96671 31.6964 9.03951 31.669C9.11221 31.6417 9.17837 31.6003 9.23384 31.5475C9.28921 31.4947 9.3327 31.4315 9.36169 31.3619C9.39068 31.2923 9.40441 31.2177 9.40212 31.1428V31.1336C9.40245 31.1218 9.40245 31.11 9.40201 31.0983C9.40147 31.0841 9.40038 31.0701 9.39874 31.0562C9.39689 31.0399 9.39417 31.0237 9.39079 31.0077C9.38403 30.976 9.37433 30.9448 9.36169 30.9145C9.34981 30.886 9.33542 30.8586 9.31885 30.8324C9.29498 30.7949 9.26654 30.7601 9.23384 30.7289C9.17837 30.6761 9.11221 30.6347 9.03951 30.6073C8.96671 30.58 8.88889 30.5672 8.81074 30.5698H6.4717V31.7066ZM6.4717 29.4215H8.44301C8.82763 29.4215 9.05793 29.1685 9.05793 28.8578C9.05793 28.5471 8.84246 28.294 8.44301 28.294H6.4717V29.4215Z" fill="white"/>
<path d="M43.711 27.1453V31.3705C43.711 31.56 43.6235 31.7057 43.4384 31.7057C43.1768 31.7057 43.1657 31.4194 43.1657 31.2299H41.7522C41.7522 32.1458 42.2999 33 43.4831 33C44.5115 33 45.2192 32.1979 45.2192 31.2119V28.4291H47.2563V32.8544H48.7627V27.1453H43.711Z" fill="white"/>
<path d="M14.5004 29.9363L16.6442 32.8552H14.8533L13.1941 30.5121V32.8552H11.6878V27.1457H13.1941V29.4325L14.8465 27.1457H16.5798L14.5004 29.9363Z" fill="white"/>
<path fill-rule="evenodd" clip-rule="evenodd" d="M30.0959 32.8542H33.2138C34.2976 32.8542 35.0962 32.1665 35.0962 31.1884C35.0962 30.6324 34.6932 30.0991 34.2249 29.8621C34.5423 29.5583 34.749 29.156 34.749 28.7627C34.749 27.886 34.0765 27.1457 32.8365 27.1457H30.0959V32.8542ZM33.0114 31.7064H31.569L31.572 30.5697H33.0143C33.0304 30.5692 33.0464 30.5693 33.0623 30.57C33.0852 30.5711 33.108 30.5735 33.1305 30.5772C33.1689 30.5835 33.2066 30.5935 33.243 30.6072C33.3158 30.6346 33.3819 30.676 33.4373 30.7288C33.4749 30.7647 33.5072 30.8054 33.533 30.8497C33.5452 30.8705 33.556 30.8921 33.5653 30.9144C33.5942 30.9841 33.608 31.0586 33.6057 31.1335V31.1427C33.608 31.2178 33.5942 31.2927 33.5651 31.3624C33.5569 31.3821 33.5475 31.4012 33.5371 31.4197C33.5289 31.4342 33.5201 31.4483 33.5106 31.462C33.489 31.493 33.4642 31.522 33.4364 31.5484C33.4114 31.5721 33.3843 31.5935 33.3553 31.6123C33.3196 31.6355 33.2814 31.6548 33.241 31.6698C33.1679 31.697 33.0898 31.7094 33.0114 31.7064ZM32.6441 29.4215H31.569V28.2939H32.6441C33.0451 28.2939 33.259 28.547 33.259 28.8577C33.259 29.1684 33.0287 29.4215 32.6441 29.4215Z" fill="white"/>
<path d="M21.3309 31.3612L23.4161 27.1457H21.7689L20.4678 29.9114L18.8904 27.1457H17.1595L19.6433 31.327C19.5654 31.4635 19.2832 31.7023 18.8635 31.7023C18.374 31.7023 17.9355 31.44 17.8273 30.8495H16.3667C16.5591 32.3278 17.6418 32.999 18.7957 32.999C20.1496 32.999 20.9463 32.1637 21.3309 31.3612Z" fill="white"/>
<path d="M39.9797 27.1457L37.4656 30.4453V27.1457H35.9593V32.8552H37.3333L39.8485 29.5579V32.8552H41.3547V27.1457H39.9797Z" fill="white"/>
<path d="M50.4625 31.0068V27.1453H55V32.8544H53.4938V28.4291H51.9696V31.0566C51.9696 32.2205 51.2727 32.8544 50.2242 32.8544H49.4256V31.5761H49.8693C50.2495 31.5761 50.4625 31.3641 50.4625 31.0068Z" fill="white"/>
</svg>
