<svg width="60" height="60" viewBox="0 0 60 60" fill="none" xmlns="http://www.w3.org/2000/svg">
<g clip-path="url(#clip0_509_2455)">
<path d="M1.29057 1.45758C3.2621 -1.01486 6.27018 -2.58618 9.64634 -2.58618L9.64721 -2.58531H27.3267C29.7332 2.49413 28.8312 8.77853 24.6529 12.9898L14.9272 22.7147L5.20151 12.989C2.05974 9.8472 0.788793 5.53519 1.29057 1.45758Z" fill="white"/>
<path d="M28.564 16.9328L18.8374 26.6585L28.564 36.3859C33.9446 41.7666 42.6346 41.7666 47.9823 36.3859C49.2617 35.1099 50.2767 33.5939 50.9692 31.9249C51.6618 30.256 52.0183 28.4668 52.0183 26.6598C52.0183 24.8529 51.6618 23.0637 50.9692 21.3947C50.2767 19.7257 49.2617 18.2098 47.9823 16.9337C42.6346 11.553 33.9116 11.5522 28.564 16.9328Z" fill="white"/>
<path d="M10.9835 26.6594L1.25693 16.9328C0.559064 16.2364 -0.214303 15.62 -1.04883 15.095V38.2237C-0.246674 37.689 0.55548 37.0865 1.25693 36.385L10.9835 26.6594Z" fill="white"/>
<path fill-rule="evenodd" clip-rule="evenodd" d="M12.1865 54.4335C14.1251 54.4335 15.6617 53.0966 15.6617 51.1919L15.6625 51.191C15.6625 50.0208 15.0939 49.1518 14.2249 48.6509C14.8604 48.1161 15.2615 47.3808 15.2615 46.4111C15.2615 44.5394 13.724 43.2702 11.8523 43.2702L7.20605 43.2355V54.4005L12.1865 54.4335ZM9.44584 47.7489V45.3094H11.8853C12.5876 45.3094 13.0885 45.8442 13.0885 46.5457C13.0885 47.248 12.5537 47.7827 11.8853 47.7827L9.44584 47.7489ZM12.1865 49.7543C12.9548 49.7543 13.4896 50.3229 13.4896 51.0582C13.4896 51.7935 12.9548 52.3613 12.1865 52.3951L9.41198 52.3613V49.7213L12.1865 49.7543Z" fill="white"/>
<path d="M24.1521 54.4344H22.112V48.3836H18.9372V54.4344H16.8979V46.4789H24.1512V54.4336L24.1521 54.4344Z" fill="white"/>
<path fill-rule="evenodd" clip-rule="evenodd" d="M30.3348 54.6341C32.4739 54.6341 34.2119 52.7962 34.2119 50.4236C34.2119 48.0501 32.4409 46.2462 30.3348 46.1793C29.1654 46.1793 28.3294 46.6134 27.7617 47.3487V46.4128H25.7224V57.5753H27.7617V53.4647C28.3294 54.2 29.1654 54.6341 30.3348 54.6341ZM29.9346 48.1838C31.2038 48.1838 32.1396 49.0867 32.1396 50.4236C32.1396 51.7944 31.2038 52.6955 29.9337 52.6625C28.6636 52.6625 27.7278 51.7605 27.7278 50.4236C27.7278 49.0867 28.6636 48.1838 29.9346 48.1838Z" fill="white"/>
<path fill-rule="evenodd" clip-rule="evenodd" d="M35.0471 50.4236C35.0471 48.0501 36.9197 46.2114 39.2593 46.2114C41.5989 46.2114 43.4697 48.0501 43.4697 50.4227C43.4697 52.7962 41.5989 54.634 39.2593 54.634C36.8858 54.634 35.0471 52.7962 35.0471 50.4236ZM41.3984 50.4236C41.3984 49.1197 40.4625 48.2168 39.2254 48.2168C38.0222 48.2168 37.0864 49.1197 37.0864 50.4227C37.0864 51.7267 38.0222 52.6287 39.2254 52.6287C40.4625 52.6287 41.3984 51.7258 41.3984 50.4236Z" fill="white"/>
<path d="M46.4787 50.8238L49.3861 54.4343L49.3869 54.4326H51.7604L48.4511 50.3889L51.6588 46.4458H49.2194L46.4787 49.9548V46.4788H44.4395V54.4335H46.4787V50.8238Z" fill="white"/>
<path d="M24.3864 40.0616L14.8925 30.5695L5.43506 40.0616H24.3864Z" fill="white"/>
</g>
<defs>
<clipPath id="clip0_509_2455">
<rect width="60" height="60" fill="white"/>
</clipPath>
</defs>
</svg>
