<svg width="24" height="24" viewBox="0 0 24 24" fill="none" xmlns="http://www.w3.org/2000/svg">
<g id="Icon - &#208;&#145;&#208;&#190;&#208;&#189;&#209;&#131;&#209;&#129;&#209;&#139;">
<path id="Icon" d="M8.39999 15.6L15.6 8.40002M8.95389 8.94937L8.93974 8.93507M15.0644 15.1227L15.0503 15.1084M9.57595 4.04282L7.63809 3.6182C7.32847 3.55035 7.01813 3.72953 6.92207 4.03159L6.32087 5.92214C6.26053 6.11189 6.11186 6.26056 5.92211 6.3209L4.03156 6.9221C3.7295 7.01816 3.55032 7.3285 3.61817 7.63812L4.04279 9.57598C4.08541 9.77048 4.03099 9.97357 3.89684 10.1207L2.56017 11.5866C2.3466 11.8208 2.3466 12.1792 2.56017 12.4134L3.89684 13.8793C4.03099 14.0265 4.08541 14.2296 4.04279 14.4241L3.61817 16.3619C3.55032 16.6715 3.7295 16.9819 4.03156 17.0779L5.92211 17.6791C6.11186 17.7395 6.26053 17.8882 6.32087 18.0779L6.92207 19.9685C7.01813 20.2705 7.32847 20.4497 7.63809 20.3818L9.57595 19.9572C9.77045 19.9146 9.97354 19.969 10.1207 20.1032L11.5866 21.4398C11.8208 21.6534 12.1792 21.6534 12.4134 21.4398L13.8793 20.1032C14.0264 19.969 14.2295 19.9146 14.424 19.9572L16.3619 20.3818C16.6715 20.4497 16.9819 20.2705 17.0779 19.9685L17.6791 18.0779C17.7394 17.8881 17.8881 17.7395 18.0779 17.6791L19.9684 17.0779C20.2705 16.9819 20.4497 16.6715 20.3818 16.3619L19.9572 14.4241C19.9146 14.2296 19.969 14.0265 20.1031 13.8793L21.4398 12.4134C21.6534 12.1792 21.6534 11.8208 21.4398 11.5866L20.1031 10.1207C19.969 9.97357 19.9146 9.77048 19.9572 9.57598L20.3818 7.63812C20.4497 7.3285 20.2705 7.01816 19.9684 6.9221L18.0779 6.3209C17.8881 6.26056 17.7394 6.11189 17.6791 5.92214L17.0779 4.03159C16.9819 3.72953 16.6715 3.55035 16.3619 3.6182L14.424 4.04282C14.2295 4.08544 14.0264 4.03102 13.8793 3.89687L12.4134 2.5602C12.1792 2.34663 11.8208 2.34663 11.5866 2.5602L10.1207 3.89687C9.97354 4.03102 9.77045 4.08544 9.57595 4.04282Z" stroke="#222222" stroke-width="2" stroke-linecap="round"/>
</g>
</svg>
