<svg width="32" height="32" viewBox="0 0 32 32" fill="none" xmlns="http://www.w3.org/2000/svg">
<g id="Icon - &#208;&#154;&#208;&#176;&#209;&#130;&#208;&#176;&#208;&#187;&#208;&#190;&#208;&#179; - &#208;&#161;&#209;&#128;&#208;&#176;&#208;&#178;&#208;&#189;&#208;&#181;&#208;&#189;&#208;&#184;&#208;&#181;">
<path id="Union" d="M5 6.4C5 5.6268 5.6268 5 6.4 5H12.4C13.1732 5 13.8 5.6268 13.8 6.4V25.6C13.8 26.3732 13.1732 27 12.4 27H6.4C5.6268 27 5 26.3732 5 25.6V6.4ZM18.2 16C18.2 15.2268 18.8268 14.6 19.6 14.6H25.6C26.3732 14.6 27 15.2268 27 16V25.6C27 26.3732 26.3732 27 25.6 27H19.6C18.8268 27 18.2 26.3732 18.2 25.6V16Z" fill="white" stroke="white" stroke-width="2" stroke-linejoin="round"/>
</g>
</svg>
