<svg width="24" height="24" viewBox="0 0 24 24" fill="none" xmlns="http://www.w3.org/2000/svg">
<g id="Icon - &#208;&#161;&#208;&#186;&#208;&#190;&#208;&#191;&#208;&#184;&#209;&#128;&#208;&#190;&#208;&#178;&#208;&#176;&#209;&#130;&#209;&#140;">
<path id="Icon" d="M6.0001 14.4L3.6001 14.4C2.93735 14.4 2.4001 13.8627 2.4001 13.2L2.4001 4.39998C2.4001 3.29541 3.29553 2.39998 4.4001 2.39998L13.2001 2.39998C13.8628 2.39998 14.4001 2.93723 14.4001 3.59998L14.4001 5.99998M12.0001 21.6L19.2001 21.6C20.5256 21.6 21.6001 20.5255 21.6001 19.2L21.6001 12C21.6001 10.6745 20.5256 9.59998 19.2001 9.59998L12.0001 9.59998C10.6746 9.59998 9.6001 10.6745 9.6001 12L9.6001 19.2C9.6001 20.5255 10.6746 21.6 12.0001 21.6Z" stroke="#222222" stroke-width="2" stroke-linecap="round"/>
</g>
</svg>
