<svg width="24" height="24" viewBox="0 0 24 24" fill="none" xmlns="http://www.w3.org/2000/svg">
<g id="Icon - &#208;&#164;&#208;&#184;&#208;&#187;&#209;&#140;&#209;&#130;&#209;&#128;&#209;&#139;">
<rect width="24" height="24" fill="white"/>
<path id="Union" d="M4.3 7.42857C4.3 9.32212 5.77746 10.8571 7.6 10.8571C9.42254 10.8571 10.9 9.32212 10.9 7.42857M4.3 7.42857C4.3 5.53502 5.77746 4 7.6 4C9.42254 4 10.9 5.53502 10.9 7.42857M4.3 7.42857H1M10.9 7.42857H23M19.7 16.5714C19.7 18.465 18.2225 20 16.4 20C14.5775 20 13.1 18.465 13.1 16.5714M19.7 16.5714C19.7 14.6779 18.2225 13.1429 16.4 13.1429C14.5775 13.1429 13.1 14.6779 13.1 16.5714M19.7 16.5714H23M13.1 16.5714H1" stroke="#222222" stroke-width="2" stroke-linecap="round"/>
</g>
</svg>
