<svg width="32" height="32" viewBox="0 0 32 32" fill="none" xmlns="http://www.w3.org/2000/svg">
<g id="Icon - &#208;&#148;&#208;&#187;&#209;&#143; &#208;&#177;&#208;&#184;&#208;&#183;&#208;&#189;&#208;&#181;&#209;&#129;&#208;&#176;">
<path id="Icon" d="M12.4364 22.4V9.60002H18.5455C19.3556 9.60002 20.1325 9.889 20.7054 10.4034C21.2782 10.9178 21.6 11.6154 21.6 12.3429C21.6 13.0703 21.2782 13.768 20.7054 14.2824C20.1325 14.7968 19.3556 15.0857 18.5455 15.0857H10.4M18.5455 18.7429H10.4M28.8 16C28.8 23.0693 23.0693 28.8 16 28.8C8.93077 28.8 3.20001 23.0693 3.20001 16C3.20001 8.93077 8.93077 3.20001 16 3.20001C23.0693 3.20001 28.8 8.93077 28.8 16Z" stroke="white" stroke-width="2" stroke-linecap="round" stroke-linejoin="round"/>
</g>
</svg>
