<svg width="140" height="140" viewBox="0 0 140 140" fill="none" xmlns="http://www.w3.org/2000/svg">
<g id="Icon - &#208;&#154;&#208;&#176;&#209;&#128;&#209;&#130;&#208;&#184;&#208;&#189;&#208;&#186;&#208;&#176;" clip-path="url(#clip0_866_4658)">
<path id="Vector" d="M41.8471 33.1843C34.6708 33.1843 28.8533 39.0017 28.8533 46.1781C28.8533 53.3544 34.6708 59.1718 41.8471 59.1718C49.0234 59.1718 54.8408 53.3544 54.8408 46.1781C54.8408 39.0017 49.0207 33.1843 41.8471 33.1843ZM121.732 9.36243H17.7816C8.45586 9.36243 0.697754 17.1181 0.697754 26.6874V113.312C0.697754 122.882 8.4534 130.637 17.7791 130.637H121.729C131.298 130.637 139.054 122.882 139.054 113.312V26.6874C139.057 17.1181 131.531 9.36243 121.732 9.36243ZM126.063 111.499L89.0306 61.175C88.3539 59.9298 86.8109 59.1718 85.1596 59.1718C83.5048 59.1718 81.9599 59.9211 81.0422 61.1693L52.1852 100.178L42.1449 87.6982C41.2134 86.5399 39.7264 85.855 38.1466 85.855C36.5651 85.855 35.0795 86.5396 34.1456 87.6982L13.7021 113.093C13.7021 113.085 13.7021 113.101 13.7021 113.093L13.6913 26.6874C13.6913 24.2993 15.6344 22.3562 18.0225 22.3562H121.973C124.361 22.3562 126.304 24.2993 126.304 26.6874V111.499H126.063Z" fill="#0149FF"/>
</g>
<defs>
<clipPath id="clip0_866_4658">
<rect width="138.6" height="138.6" fill="white" transform="translate(0.700195 0.699951)"/>
</clipPath>
</defs>
</svg>
