<svg width="58" height="53" viewBox="0 0 58 53" fill="none" xmlns="http://www.w3.org/2000/svg">
<g id="Group 1">
<path id="Vector" d="M57.2545 24.7697L57.9999 22.3692L55.534 22.447C55.3257 22.447 53.8114 22.4038 52.3422 21.332C52.4517 21.3428 52.5612 21.358 52.6729 21.358C54.185 21.358 55.6479 20.4418 56.2342 19.1323L57.2953 16.7663C55.9657 16.7836 54.75 16.6151 54.75 16.6151C54.7392 16.6129 53.7813 16.4898 52.6729 15.3511C51.8782 14.5343 50.8944 14.1021 49.829 14.1021C49.3629 14.1021 48.9462 14.1864 48.5875 14.301C48.6433 14.1087 48.697 13.9141 48.7271 13.7132C49.0665 11.4985 47.6489 9.8088 47.6489 9.81103L45.7951 7.50111L44.646 10.2151C44.6418 10.2237 44.3516 10.8589 43.8319 11.1701C43.6752 10.3728 43.2906 9.47608 42.468 8.61823C40.9171 7.00197 39.029 6.76223 38.041 6.76223C37.5835 6.76223 37.257 6.81189 37.1775 6.82489L34.9392 7.26781C35.0682 6.76435 35.3431 5.88928 35.8457 5.10053L37.0809 3.16455L33.9726 3.52104L32.9824 1.40576L31.0664 2.39969L29.2944 0.638672L27.5267 2.39969L25.6042 1.40576L24.6161 3.52104L21.5101 3.16455L22.7474 5.10053C23.25 5.88928 23.525 6.76224 23.6517 7.2656L21.5167 6.84211L21.4436 6.82912C21.3362 6.81189 21.0119 6.76223 20.5521 6.76223C19.5641 6.76223 17.676 7.0042 16.1295 8.61823C15.3046 9.47386 14.9202 10.3728 14.7612 11.1701C14.2457 10.8633 13.9579 10.2366 13.9579 10.2366L12.8065 7.50766L10.9228 9.83258C10.693 10.133 9.55674 11.721 9.86591 13.7176C9.89825 13.9164 9.94983 14.1108 10.0056 14.3031C9.64912 14.1886 9.23225 14.1044 8.76622 14.1044C7.70089 14.1044 6.71705 14.5365 5.92019 15.3533C4.81607 16.4877 3.86246 16.6151 3.87102 16.6151C3.87102 16.6151 2.86351 16.7967 1.30414 16.7685L2.3589 19.1346C2.94521 20.4462 4.41019 21.36 5.92019 21.36C6.03403 21.36 6.14353 21.3449 6.25526 21.3341C4.79028 22.4058 3.27605 22.449 3.09351 22.4513L0.580322 22.3692L1.34071 24.7676C1.72303 26.0035 3.00102 28.0519 5.44973 28.2723C5.18337 29.3958 4.59273 30.6533 3.29539 31.1957L1.42453 31.9714L2.44473 33.7584C3.02037 34.7222 4.3715 35.85 6.29606 35.85C6.71272 35.8478 7.11437 35.8068 7.50112 35.7247C7.59984 36.1655 7.72446 36.6062 7.87054 37.0427C8.44405 38.7582 7.94992 39.9554 7.94357 39.9684L7.01988 41.9151L9.08194 42.4619C9.10773 42.4705 9.73061 42.6411 10.5103 42.6411C10.8649 42.6411 11.202 42.6045 11.52 42.5288C11.7605 42.4726 11.9903 42.3969 12.2116 42.3063C12.4779 42.7881 12.8023 43.2267 13.1804 43.6199C14.5013 44.9834 16.3722 45.6748 18.7436 45.6748H18.7522L20.4448 45.6533L16.9479 47.1139L19.6027 48.4039C20.5672 48.877 21.7121 49.4366 22.8762 49.8645L22.5455 50.7764L23.4605 51.1955C23.5422 51.2323 25.3013 52.0252 28.2269 52.1938C28.2269 52.1938 28.9335 52.2262 29.3223 52.2262C29.7112 52.2262 30.4092 52.1916 30.4092 52.1916C33.3154 52.0188 35.0617 51.2343 35.1434 51.1955L36.0605 50.7741L35.7254 49.8601C36.924 49.4193 38.1097 48.8381 39.0333 48.3844L41.6388 47.1118L38.1526 45.6489L39.8517 45.6705C42.2252 45.6705 44.0983 44.979 45.4171 43.6135C45.793 43.2224 46.1173 42.7838 46.3859 42.302C46.6071 42.3927 46.839 42.4683 47.0796 42.5245C47.3953 42.6001 47.7326 42.6368 48.087 42.6368C48.8538 42.6368 49.4832 42.4661 49.5004 42.4619L51.571 41.9108L50.6688 40.0007C50.6474 39.951 50.1534 38.7562 50.7269 37.0383C50.873 36.5998 50.9953 36.1589 51.0942 35.7203C51.483 35.8025 51.889 35.8456 52.3078 35.8456C54.7586 35.8456 55.9336 34.1105 56.1613 33.7346L57.1708 31.9672L55.2999 31.1937C54.0004 30.6513 53.4119 29.3915 53.1477 28.2702C55.562 28.0627 56.8593 26.0143 57.2545 24.7697ZM23.815 8.09323L23.7892 8.09967L23.8106 8.07156L23.815 8.09323Z" fill="white"/>
<path id="Vector_2" d="M29.2965 7.9873C27.3161 7.98952 25.8319 8.64208 25.5076 9.40916L29.2965 10.913L33.0856 9.40916C32.7634 8.64208 31.2791 7.98952 29.2965 7.9873Z" fill="white"/>
<path id="Vector_3" d="M29.3351 47.7988H29.3308H29.2985H29.2621H29.26C28.0592 47.8075 26.4074 47.5589 25.6105 47.3257L24.6526 49.9337C25.284 50.1605 27.4235 50.5927 29.2985 50.5927C31.1694 50.5927 33.3111 50.1583 33.9404 49.9337L32.9846 47.3257C32.1854 47.5612 30.5357 47.8075 29.3351 47.7988Z" fill="white"/>
<path id="Vector_4" d="M36.5846 45.2061C35.8713 45.6122 34.2798 46.2216 33.354 46.5047L34.1315 48.6589C35.5643 48.2657 36.7456 47.8054 37.7229 47.3127L36.1098 46.7726L36.5846 45.2061Z" fill="white"/>
<path id="Vector_5" d="M22.0107 45.2061L22.4876 46.7726L20.8723 47.3127C21.8475 47.8054 23.0353 48.2657 24.4615 48.6589L25.2391 46.5047C24.3177 46.2216 22.7238 45.6102 22.0107 45.2061Z" fill="white"/>
<path id="Vector_6" d="M29.2969 5.49389C30.7897 5.49389 32.2547 5.85249 33.3801 6.48349C33.4833 6.13556 33.6272 5.71419 33.8227 5.27348L33.3974 5.32525L32.9506 5.3728L32.7615 4.96443L32.1924 3.75442L31.1549 4.299L30.7511 4.5064L30.4288 4.18656L29.3012 3.06299L28.1757 4.18656L27.8534 4.5064L27.4496 4.299L26.4058 3.75442L25.843 4.96443L25.6496 5.3728L25.2028 5.32525L24.7776 5.27348C24.973 5.7164 25.1149 6.13556 25.22 6.48349C26.3477 5.85249 27.8084 5.49389 29.2969 5.49389Z" fill="white"/>
<path id="Vector_7" d="M52.0887 19.4784C52.2819 19.5454 52.4796 19.5755 52.675 19.5755C53.5191 19.5755 54.3354 19.0267 54.6168 18.398C54.6168 18.398 53.0681 18.3029 51.4034 16.6025C50.8728 16.0514 50.3122 15.8872 49.8311 15.8872C49.0836 15.8872 48.5229 16.2848 48.5229 16.2848C50.5334 17.3609 50.9437 19.0894 52.0887 19.4784Z" fill="white"/>
<path id="Vector_8" d="M5.91794 19.5755C6.11337 19.5755 6.31103 19.5454 6.50002 19.4784C7.64927 19.0894 8.0616 17.3609 10.0721 16.2848C10.0721 16.2848 9.50935 15.8872 8.76608 15.8872C8.28294 15.8872 7.72221 16.0514 7.18949 16.6025C5.52696 18.3029 3.97827 18.398 3.97827 18.398C4.25541 19.0267 5.07373 19.5755 5.91794 19.5755Z" fill="white"/>
<path id="Vector_9" d="M52.6342 26.5026C52.6687 26.5048 52.6988 26.5048 52.7352 26.5048C54.8425 26.5048 55.5576 24.2338 55.5576 24.2338H55.5168C55.1302 24.2338 51.9963 24.1431 49.7817 21.3103C48.3233 19.4478 47.129 17.81 44.7684 17.1661L44.5364 17.125L44.4849 16.8874C44.4204 16.5243 44.6674 16.1851 45.2282 15.8178C48.4844 13.6722 46.2741 10.9367 46.2741 10.9367C46.2741 10.9367 45.3441 13.1255 43.2626 13.1255C43.2132 13.1255 43.1597 13.1234 43.1081 13.1234C42.8717 13.1104 42.6441 13.1018 42.4143 13.0521L42.0297 12.9764C42.0297 12.9764 42.6226 11.3537 41.1921 9.86285C40.1137 8.73705 38.8013 8.54688 38.0431 8.54688C37.6608 8.54688 37.418 8.59664 37.418 8.59664C38.1376 9.54303 38.6574 11.1117 37.8261 12.0797C37.1087 12.9116 35.356 12.9526 35.356 14.1929C35.356 14.718 35.8435 15.3316 36.72 15.8826C39.3556 17.5528 41.9717 19.7676 43.0586 22.7364C44.4183 26.44 42.8867 28.8967 40.7002 30.3055C40.7002 30.3055 41.3854 30.9407 42.3799 31.0207C42.5818 31.0402 42.7793 31.0489 42.9641 31.0489C45.0627 31.0489 46.1474 30.0592 46.1474 30.0592C46.1474 30.0592 45.9691 31.4269 44.8759 32.6974C43.8685 33.8707 42.5452 34.56 40.5283 34.5902C40.5283 34.5902 40.4639 35.5324 41.3574 36.3469C41.9289 36.8611 43.2498 37.0297 43.2498 37.0297C43.2498 37.0297 40.7774 37.5331 40.5047 41.2064C40.3564 43.1965 39.8516 43.8879 39.8516 43.8879H39.8967C45.634 43.8879 45.4857 38.9376 45.4857 38.9376C45.4857 38.9376 45.8854 40.4026 47.4857 40.785C47.6789 40.8369 47.8851 40.8564 48.0828 40.8564C48.5982 40.8564 49.045 40.7354 49.045 40.7354C49.045 40.7354 48.2073 38.9571 49.0386 36.47C49.7281 34.4066 49.6163 32.8768 49.6163 32.8768C49.6163 32.8768 50.3897 34.0522 52.3057 34.0631H52.325C53.921 34.0631 54.6168 32.8465 54.6168 32.8465C50.7914 31.2498 51.1695 26.0943 51.1695 26.0943C51.1695 26.0943 51.6656 26.4658 52.6342 26.5026ZM51.483 31.8871C49.9278 31.1158 48.9441 29.0674 48.7056 28.3284C48.4479 32.3906 46.4761 35.2104 44.1713 37.9242C42.9749 39.3308 42.5581 40.6986 42.5581 40.6986C42.5581 40.6986 42.788 39.1494 43.8233 37.8874C45.9734 35.2881 48.0161 32.0536 48.1687 28.3134C48.2739 25.7031 47.6058 23.5856 46.5641 21.8419C47.1462 23.659 47.0647 25.8846 45.0863 27.9611C45.0863 27.9611 49.0236 23.214 43.5184 18.348C41.3145 16.4962 38.9045 15.3532 37.663 14.5429C42.1479 16.0145 44.3367 14.3939 44.3367 14.3939C42.904 15.6429 41.0502 15.6211 39.9012 15.4418C40.2126 15.5952 40.5369 15.7551 40.887 15.9431C44.6674 18.0087 48.0656 21.4076 48.6455 26.1158V26.0791C49.5262 30.7009 51.483 31.8871 51.483 31.8871Z" fill="white"/>
<path id="Vector_10" d="M15.3433 37.0297C15.3433 37.0297 16.6643 36.8634 17.2357 36.3469C18.1271 35.5324 18.0648 34.5902 18.0648 34.5902C16.0457 34.5621 14.7248 33.8707 13.7108 32.6996C12.6261 31.4291 12.4457 30.0614 12.4457 30.0614C12.4457 30.0614 13.5304 31.0509 15.6268 31.0509C15.8159 31.0509 16.0113 31.0422 16.2133 31.0229C17.2077 30.9429 17.8951 30.3076 17.8951 30.3076C15.7085 28.8988 14.1748 26.44 15.5323 22.7364C16.6214 19.7698 19.2354 17.5528 21.871 15.8826C22.7474 15.3316 23.235 14.7201 23.235 14.1929C23.235 12.9526 21.4844 12.9116 20.767 12.0797C19.9357 11.1117 20.4576 9.5408 21.175 8.59664C21.175 8.59664 20.9367 8.54688 20.5521 8.54688C19.7962 8.54688 18.4836 8.73705 17.4054 9.86285C15.9705 11.3537 16.5655 12.9764 16.5655 12.9764L16.181 13.0521C15.9512 13.1018 15.7214 13.1104 15.4873 13.1234C15.4336 13.1234 15.3862 13.1255 15.3347 13.1255C13.249 13.1255 12.3233 10.9389 12.3233 10.9389C12.3233 10.9389 10.113 13.6744 13.3673 15.8199C13.9278 16.1873 14.1726 16.5266 14.1082 16.8895L14.0567 17.1272L13.8204 17.1682C11.4641 17.8121 10.2677 19.4501 8.80927 21.3126C6.59891 24.141 3.46929 24.2338 3.07842 24.2338H3.0354C3.0354 24.2338 3.75066 26.5048 5.85786 26.5048C5.89221 26.5048 5.92223 26.5048 5.9588 26.5026C6.92763 26.4681 7.426 26.0943 7.426 26.0943C7.426 26.0943 7.79964 31.2476 3.97844 32.8465C3.97844 32.8465 4.67436 34.0631 6.27029 34.0631H6.28953C8.20774 34.0522 8.97891 32.8768 8.97891 32.8768C8.97891 32.8768 8.86719 34.4066 9.55444 36.47C10.3858 38.9571 9.55243 40.7354 9.55243 40.7354C9.55243 40.7354 9.99922 40.8564 10.5125 40.8564C10.7123 40.8564 10.9164 40.8369 11.1076 40.785C12.7056 40.4026 13.1073 38.9376 13.1073 38.9376C13.1073 38.9376 12.9612 43.8879 18.6985 43.8879H18.7393C18.7393 43.8879 18.2367 43.1965 18.0906 41.2064C17.8156 37.5331 15.3433 37.0297 15.3433 37.0297ZM14.4218 37.9242C12.1171 35.2104 10.1474 32.3906 9.8875 28.3284C9.64904 29.0653 8.66953 31.1158 7.1145 31.8871C7.1145 31.8871 9.06908 30.7009 9.94764 26.0791V26.1158C10.5297 21.4097 13.9257 18.0087 17.7083 15.9431C18.0541 15.7531 18.3827 15.593 18.692 15.4418C17.5428 15.6211 15.6892 15.6429 14.2565 14.3939C14.2565 14.3939 16.4453 16.0145 20.928 14.5429C19.6865 15.3532 17.2787 16.4962 15.0748 18.348C9.56744 23.214 13.5068 27.9611 13.5068 27.9611C11.5263 25.8826 11.4469 23.659 12.029 21.8419C10.9851 23.5878 10.3192 25.7031 10.4266 28.3134C10.577 32.0536 12.6197 35.2881 14.7656 37.8874C15.803 39.1472 16.0371 40.6986 16.0371 40.6986C16.0371 40.6986 15.616 39.3308 14.4218 37.9242Z" fill="white"/>
<path id="Vector_11" d="M25.0548 18.9314C25.1493 19.033 25.2416 19.1432 25.3297 19.2533C25.3513 19.2793 25.3705 19.3031 25.392 19.3334C25.4736 19.4436 25.5575 19.5602 25.6369 19.6791C25.654 19.7028 25.6712 19.731 25.6906 19.759C25.7873 19.9059 25.8774 20.0572 25.9677 20.2128C26.7947 21.6498 28.1199 22.5075 29.2949 22.5097C30.472 22.5075 31.7929 21.6498 32.6243 20.2128C32.7165 20.0529 32.8089 19.8974 32.9056 19.7525C32.9206 19.731 32.9357 19.7115 32.9485 19.6899C33.0301 19.5667 33.1161 19.4458 33.2063 19.329C33.2257 19.3031 33.2429 19.2815 33.26 19.26C33.3524 19.1454 33.4469 19.033 33.5435 18.9293C33.5607 18.912 33.5736 18.8969 33.5886 18.884C34.0096 18.4497 34.5123 18.1191 35.1696 17.9353L34.8774 17.7647H34.8602L33.6961 17.0841L32.4997 16.3948L29.3034 18.145L29.2949 18.1384L29.2884 18.145L26.0901 16.3948L24.8958 17.0819L23.7294 17.7625H23.7166L23.4202 17.9332C24.0795 18.1169 24.5801 18.4431 25.0032 18.8775C25.0225 18.8948 25.0354 18.9143 25.0548 18.9314ZM28.0019 18.791H29.355H30.706V19.7246C30.3881 19.3334 29.7696 19.4133 29.7696 19.4133V20.7594C29.7696 20.7594 29.7932 21.4207 30.023 21.7081H29.355H28.6849C28.9189 21.4227 28.9405 20.7594 28.9405 20.7594V19.4133C28.9405 19.4133 28.324 19.3334 28.0019 19.7246V18.791Z" fill="white"/>
<path id="Vector_12" d="M29.0191 16.9802V11.5157L25.5608 10.3359L26.4738 15.6318L29.0191 16.9802ZM28.2759 12.8575V13.7348L28.1083 13.657C28.0997 13.6505 27.8549 13.5944 27.4253 13.253C26.7164 12.6998 26.7036 12.1898 26.7036 12.1898L28.2759 12.8575Z" fill="white"/>
<path id="Vector_13" d="M32.1209 15.6318L33.0296 10.3359L29.5735 11.5157V16.9802L32.1209 15.6318ZM30.3167 12.8575L31.8889 12.1921C31.8889 12.1921 31.8761 12.7019 31.1651 13.2551C30.7376 13.5964 30.4906 13.6527 30.4821 13.6591L30.3145 13.7369V12.8575H30.3167Z" fill="white"/>
<path id="Vector_14" d="M24.1281 29.6487C24.4653 29.772 24.8735 29.7979 25.0818 29.7979C25.0904 29.772 25.1012 29.7396 25.112 29.7006C25.1313 29.638 25.1484 29.5775 25.1613 29.5083C25.2192 29.2059 25.2408 28.8623 25.245 28.6419C25.1033 28.5533 24.9035 28.3956 24.7918 28.1601C24.663 27.8877 24.4804 27.7625 24.2118 27.7625C23.864 27.7625 23.4902 27.9721 23.3313 28.0714C23.2045 28.8256 23.7565 29.5105 24.1281 29.6487Z" fill="white"/>
<path id="Vector_15" d="M31.7779 26.7485C31.1355 27.4508 29.879 28.6738 29.8166 28.7365L29.7415 28.8141L25.77 28.7515C25.7678 29.147 25.7033 29.484 25.641 29.7304C25.6303 29.7714 25.6196 29.8147 25.6089 29.8579L30.3343 30.7114C30.8263 30.3657 32.1795 29.3717 32.7036 28.9829C32.3211 28.421 32.2848 27.7555 32.3707 27.2865C32.1215 27.1245 31.9303 26.9431 31.7779 26.7485Z" fill="white"/>
<path id="Vector_16" d="M32.3161 21.9435C31.4011 22.8574 30.5226 23.1946 29.7386 23.2723C29.5968 23.2874 29.4529 23.2961 29.3069 23.2961H29.2961H29.2874C29.1413 23.2961 28.9954 23.2874 28.8536 23.2723C28.7161 23.2594 28.5723 23.2378 28.4283 23.2054C28.3767 23.4107 28.3122 23.8406 28.4971 24.2469C28.6625 24.6163 28.9997 24.8908 29.4916 25.0723L29.6569 25.137L29.6591 25.3164C29.6591 25.3705 29.6977 26.5329 30.9586 26.8549C31.1648 26.641 31.3517 26.4486 31.4892 26.2887C31.2314 25.6794 31.3667 25.0572 31.7405 24.7525C31.7232 24.8173 31.5601 26.3428 32.7758 26.9088L32.9755 27.0039L32.9154 27.2179C32.896 27.2826 32.4902 28.7585 33.9615 29.3073L34.2214 29.4068L34.1054 29.6616C34.0797 29.7178 33.5018 31.0575 34.8614 31.8181H37.8106V29.4628C36.7625 29.3331 36.3178 28.4863 36.204 27.8856C35.7163 27.8013 35.3384 27.5895 35.0806 27.2438C34.462 26.4249 34.9947 25.6751 35.0011 25.634C34.9989 25.6405 35.0011 26.44 35.4908 26.9326C35.7335 27.1703 36.0214 27.354 36.4574 27.3951L36.6722 27.4146L36.6916 27.6349C36.6959 27.6824 36.814 28.7628 37.8128 28.9335L37.8106 24.1236C37.8106 23.3783 38.0276 22.6285 38.2875 21.937H32.3161V21.9435Z" fill="white"/>
<path id="Vector_17" d="M24.3799 24.1474L24.3005 27.2113L24.6463 27.2632L25.4926 24.3246L25.0629 23.4214L24.3799 24.1474Z" fill="white"/>
<path id="Vector_18" d="M33.711 38.1986C33.7367 38.1986 33.7668 38.203 33.7948 38.2095C34.3209 38.3607 34.4542 40.2708 35.3778 40.4416C35.468 40.461 35.5517 40.4653 35.6248 40.4653C35.8912 40.4653 36.0501 40.3507 36.2219 40.1476C36.2219 40.1476 35.7579 39.4129 35.4101 38.9181C34.9482 38.27 34.5895 37.4857 33.7302 37.4857C33.711 37.4857 33.6852 37.4857 33.6637 37.4878C33.3801 37.5029 33.2062 37.6411 33.2062 37.6411C32.8582 37.4207 32.5338 37.3452 32.2396 37.3452C31.7005 37.3452 31.2816 37.5936 31.0733 37.5936H31.0646L29.1444 37.4036C28.8437 37.3755 28.6074 37.0707 28.5215 36.952C28.4999 36.9195 28.4891 36.9001 28.4891 36.9001C28.4891 36.8482 28.4891 36.7942 28.4849 36.7466C28.4204 35.1671 27.2048 34.4909 26.7729 34.4801C26.7729 34.4801 26.8245 34.1796 26.7064 34.0651L26.2832 34.5816L24.8935 33.8794L25.8837 35.044L25.0438 35.9926C24.9386 36.1006 24.9515 36.2475 24.9944 36.308L25.3575 36.63L25.8171 36.349C25.8408 36.3317 25.8816 36.3275 25.933 36.3275C26.0599 36.3275 26.251 36.3598 26.4229 36.3598C26.6097 36.3598 26.7729 36.3188 26.7924 36.1417C26.7343 36.7273 26.1952 37.7449 26.5496 38.5443L26.8117 39.1472L25.1147 38.9009L24.32 40.2513C24.0752 40.7008 24.0364 41.1869 24.2727 41.4506L24.5692 41.8244C24.5692 41.8244 24.9859 41.3793 25.0804 41.0875L24.9451 40.9385C24.8311 40.8132 24.8377 40.7008 24.9065 40.5646L25.4047 39.7328L27.4088 40.2081L27.514 40.0266C27.6494 39.7998 27.8448 39.7307 28.0597 39.7307C28.1476 39.7307 28.2379 39.7415 28.3324 39.7566C28.704 39.83 29.3162 39.9294 29.9283 39.9294C30.6007 39.9294 31.2666 39.8085 31.621 39.4086C32.3469 40.4912 33.8183 40.664 33.7024 41.2128L33.3157 43.0668C33.5713 43.056 33.8183 43.0388 34.0525 43.0063L34.4198 41.0767C34.4606 40.8671 34.4993 40.5841 34.4993 40.5841C34.3575 40.4393 34.0138 40.1325 33.8205 39.7609C33.5605 39.2596 33.7024 38.9982 33.4596 38.3456C33.4683 38.3499 33.5412 38.1986 33.711 38.1986ZM26.2144 35.4891C26.1157 35.487 26.0448 35.4027 26.0491 35.3032C26.0578 35.2082 26.1372 35.1327 26.2339 35.1412C26.3327 35.1455 26.4035 35.232 26.3993 35.327C26.3906 35.4221 26.309 35.4955 26.2144 35.4891Z" fill="white"/>
<path id="Vector_19" d="M23.4776 39.9533C23.4776 39.9533 24.1414 39.6788 24.2016 39.4823L24.1135 39.2596C24.0511 39.1148 24.0598 38.9571 24.1801 38.8707L24.8975 38.3715L26.0961 38.6027C26.0961 38.6027 25.8791 38.3305 25.9007 37.9654L24.758 37.7212L23.6796 38.3823C23.2178 38.7303 23.1835 39.2984 23.3359 39.6357L23.4776 39.9533Z" fill="white"/>
<path id="Vector_20" d="M31.9487 43.0949C32.1635 43.0862 32.3997 43.0818 32.6598 43.0818C32.6598 43.0818 33.2762 41.2691 33.3105 41.2107C32.9647 41.0573 32.2473 40.6749 31.9702 40.4998C32.1528 40.7743 32.5974 41.0896 32.5094 41.3318L31.9487 43.0949Z" fill="white"/>
<path id="Vector_21" d="M37.8174 32.3433H20.7776V38.7909C20.7776 41.427 22.6742 43.0777 25.473 43.0777C27.8122 43.0777 28.4287 43.1684 29.2987 44.0371C29.8979 43.4364 30.3941 43.2116 31.4122 43.1274L31.4359 43.028L31.9728 41.3577C31.9428 41.321 31.0642 40.3162 31.0642 40.3162C30.7163 40.433 30.4241 40.4524 29.9323 40.4524C29.4275 40.4524 28.8582 40.3941 28.2418 40.2774C28.1795 40.2623 28.1216 40.2579 28.0635 40.2579C27.9883 40.2579 27.9819 40.2644 27.9625 40.3011L27.8551 40.4783L27.6597 40.8025L27.2924 40.7182L25.6578 40.3315L25.4344 40.703L25.4688 40.742L25.6685 40.9624L25.5805 41.2498C25.4602 41.6257 25.0693 42.0643 24.9511 42.1854L24.543 42.6261L24.1715 42.153L23.8921 41.8007C23.5979 41.4702 23.5291 40.9624 23.6945 40.4308C23.6902 40.4351 23.6839 40.4373 23.6773 40.4373L23.2155 40.6296L23.0072 40.1758L22.8611 39.8539C22.6098 39.2878 22.7021 38.4602 23.3787 37.9611L24.6955 37.2135L25.9478 37.4619C25.9778 37.341 26.023 36.9089 26.0594 36.7987C26.0358 36.7964 26.0122 36.79 25.9886 36.79L25.2668 37.0601L24.5709 36.576C24.5709 36.576 24.2982 36.3125 24.5451 36.0488L25.2196 35.0225L23.512 32.8661L26.1368 33.9507L26.3107 33.7325L26.6652 33.3069L27.0668 33.6914C27.1808 33.8016 27.2452 33.9379 27.2773 34.074C28.0012 34.357 29.2964 35.1932 29.4103 36.5522L29.0043 36.7165V36.7273C29.0967 36.8375 29.1739 36.8829 29.1977 36.8871L31.0707 37.0731C31.1179 37.0644 31.1781 37.0427 31.2447 37.0233C31.4767 36.9434 31.8267 36.8288 32.2414 36.8288C32.5786 36.8288 32.9051 36.9066 33.2186 37.0536C33.3346 37.0104 33.4764 36.978 33.6397 36.9672L33.7298 36.9649C34.7329 36.9649 35.2313 37.7191 35.6308 38.3197C35.6974 38.4234 35.764 38.5229 35.8328 38.6201C36.1829 39.1171 36.6403 39.8452 36.6597 39.8756L36.8659 40.1996L36.6124 40.4957C36.417 40.7225 36.1249 40.9883 35.6223 40.9883C35.5191 40.9883 35.4053 40.9775 35.2829 40.9537C35.1754 40.9342 35.0789 40.9018 34.9843 40.863C34.9692 40.9624 34.9499 41.0813 34.9306 41.1828L34.6019 42.907C36.5674 42.4209 37.8154 40.9278 37.8154 38.793L37.8174 32.3433Z" fill="#FFDD2D"/>
<path id="Vector_22" d="M20.7775 31.8248H34.0284C33.3667 31.1378 33.3753 30.267 33.545 29.7009C33.3517 29.608 33.1927 29.4955 33.051 29.3745C32.5333 29.7592 30.9523 30.9173 30.54 31.2069L30.452 31.2673L25.2516 30.3209H25.1463C25.0218 30.3209 24.8392 30.3167 24.6395 30.2929C24.5836 30.5284 24.3817 30.6905 24.1497 30.6905C24.1239 30.6905 24.0939 30.6884 24.066 30.6818C23.9307 30.658 23.8124 30.589 23.733 30.4744C23.6513 30.362 23.6192 30.2281 23.6428 30.0898L23.6621 29.9775C23.1252 29.5971 22.6311 28.748 22.8502 27.8534L22.8717 27.7583L22.9469 27.7043C22.9575 27.6956 23.0478 27.6353 23.181 27.5574L22.803 27.4991C22.6612 27.4732 22.5667 27.3412 22.5882 27.2009C22.6118 27.0582 22.745 26.9567 22.8846 26.9848L23.7846 27.1275L23.8662 23.9382L25.2065 22.512L26.0421 24.2817L25.1593 27.3499L25.9541 27.4752C26.0937 27.4969 26.1903 27.6286 26.1689 27.7734C26.1473 27.901 26.04 27.9894 25.9133 27.9894C25.9003 27.9894 25.8853 27.9894 25.8725 27.9874L25.2258 27.8815C25.2345 27.901 25.2474 27.9118 25.2559 27.9334C25.3247 28.0759 25.4772 28.1797 25.5674 28.2229L29.5325 28.2855C29.7001 28.1214 30.1168 27.7107 30.5442 27.2765C29.5691 26.9048 29.2148 26.0578 29.1545 25.4961C28.6089 25.2626 28.233 24.9127 28.0247 24.4568C27.7711 23.8928 27.8615 23.3289 27.928 23.0544C27.3996 22.86 26.8433 22.5056 26.2762 21.9395H20.3049C20.5605 22.6309 20.7775 23.3806 20.7775 24.1262V31.8248Z" fill="#FFDD2D"/>
<path id="Vector_23" d="M26.2355 35.1411C26.1387 35.1324 26.057 35.208 26.0507 35.3032C26.0442 35.4025 26.1172 35.4868 26.2161 35.4889C26.3106 35.4976 26.3943 35.4241 26.4029 35.3269C26.4029 35.2318 26.3342 35.1433 26.2355 35.1411Z" fill="#222222"/>
<path id="Vector_24" d="M37.7938 46.8327L36.8122 46.4546L37.0827 45.4347L37.3813 44.322C37.3813 44.322 35.6416 45.2705 33.1906 45.9836C32.4947 46.1845 31.9684 46.2753 31.9684 46.2753V47.0315C31.9684 47.0315 30.6581 47.2606 29.333 47.2606H29.3178H29.2986H29.2728H29.2577C27.9324 47.2606 26.6222 47.0315 26.6222 47.0315V46.2753C26.6222 46.2753 26.0937 46.1845 25.4 45.9836C22.9491 45.2705 21.2114 44.322 21.2114 44.322L21.5057 45.4347L21.7828 46.4546L20.799 46.8327L19.7078 47.2433C20.9601 47.8505 22.6935 48.7363 24.2809 49.1728L23.9072 50.2012C23.9072 50.2012 25.9198 51.1239 29.2728 51.1326V51.1348H29.2835H29.2986H29.3114H29.3201V51.1326C32.6772 51.1239 34.6877 50.2012 34.6877 50.2012L34.3119 49.1728C35.8992 48.7363 37.6369 47.8505 38.8828 47.2433L37.7938 46.8327ZM20.872 47.3124L22.4873 46.7722L22.0105 45.2057C22.7214 45.6119 24.3174 46.2212 25.241 46.5042L24.4612 48.6585C23.035 48.2632 21.8472 47.8029 20.872 47.3124ZM29.2986 50.5924C27.4234 50.5924 25.2818 50.158 24.6524 49.9333L25.6105 47.3254C26.4052 47.5587 28.0592 47.8073 29.2598 47.7986H29.262H29.2986H29.3307H29.3351C30.5358 47.8073 32.1854 47.5587 32.9844 47.3254L33.9403 49.9333C33.3109 50.1603 31.1715 50.5924 29.2986 50.5924ZM34.1314 48.6585L33.3539 46.5042C34.2797 46.2212 35.8713 45.6119 36.5844 45.2057L36.1098 46.7722L37.7229 47.3124C36.7455 47.8029 35.5642 48.2632 34.1314 48.6585Z" fill="#222222"/>
<path id="Vector_25" d="M29.2962 6.1248C31.2939 6.1248 32.8921 6.79025 33.7748 7.50111C33.7748 7.50111 34.0369 5.91306 34.9326 4.51076L33.3237 4.6944L32.4818 2.8945L30.8644 3.73279L29.2962 2.17285L27.7325 3.73279L26.113 2.8945L25.2731 4.6944L23.6643 4.51076C24.56 5.91306 24.8221 7.50111 24.8221 7.50111C25.707 6.79025 27.3009 6.1248 29.2962 6.1248ZM25.2001 5.32528L25.6469 5.37283L25.8402 4.96446L26.403 3.75445L27.4469 4.29681L27.8507 4.50421L28.173 4.18449L29.2984 3.06091L30.4261 4.18449L30.7483 4.50421L31.1521 4.29681L32.1896 3.75445L32.7588 4.96446L32.9479 5.37283L33.3947 5.32528L33.8199 5.2734C33.6245 5.71643 33.4806 6.13558 33.3774 6.48341C32.2519 5.85253 30.787 5.4938 29.2942 5.4938C27.8077 5.4938 26.3449 5.85253 25.2152 6.48341C25.1099 6.13558 24.9682 5.71421 24.7727 5.2734L25.2001 5.32528Z" fill="#222222"/>
<path id="Vector_26" d="M52.7326 27.1984C55.3166 27.1984 56.18 24.5536 56.2166 24.4412L56.5044 23.51L55.5357 23.5402H55.5314C55.1899 23.5402 52.3396 23.4646 50.3182 20.8803L50.127 20.6405C48.8061 18.9508 47.5538 17.3454 45.3156 16.6129C45.3801 16.5545 45.4725 16.4811 45.5992 16.399C46.787 15.6125 47.4786 14.6574 47.6526 13.549C47.9061 11.8808 46.8493 10.5521 46.802 10.498L46.0825 9.60349L45.6336 10.6644C45.6036 10.7314 44.8474 12.4297 43.2579 12.4297H43.1397C43.0302 12.4232 42.9272 12.4188 42.824 12.4103C42.8798 11.6519 42.7423 10.4785 41.6856 9.37875C40.4161 8.05421 38.8567 7.85547 38.0404 7.85547C37.6044 7.85547 37.3144 7.90946 37.2844 7.91379L36.1975 8.12987L36.8676 9.01793C37.394 9.70291 37.8708 10.9669 37.3058 11.6281C37.1254 11.8376 36.7539 12.0084 36.3972 12.179C35.6648 12.5183 34.666 12.9893 34.666 14.1908C34.666 14.9686 35.2653 15.781 36.3522 16.4725C39.5698 18.5079 41.5546 20.6318 42.4116 22.9763C43.7369 26.5826 42.0077 28.6395 40.3281 29.7221L39.5741 30.2105L40.2336 30.8197C40.3216 30.8975 41.1292 31.6128 42.3213 31.7164C42.5469 31.7315 42.7639 31.7445 42.9658 31.7445C43.7305 31.7445 44.3814 31.6235 44.9098 31.4615C44.7637 31.7186 44.5854 31.98 44.3598 32.2436C43.3996 33.3628 42.2184 33.8728 40.5192 33.8988L39.8877 33.9096L39.8384 34.547C39.8319 34.6744 39.7846 35.8564 40.8972 36.8611C41.0669 37.0167 41.2731 37.1442 41.488 37.2501C40.734 37.9328 39.9672 39.1213 39.819 41.1588C39.6944 42.8592 39.2906 43.4881 39.2863 43.4946L38.5882 44.5663L39.8491 44.5836C41.9326 44.5836 43.5285 44.0045 44.6347 42.8592C45.2876 42.1809 45.6615 41.4159 45.8827 40.7375C46.2457 41.0486 46.714 41.3209 47.324 41.4657C47.556 41.5196 47.8095 41.55 48.0823 41.55C48.6708 41.55 49.1626 41.4246 49.2185 41.4117L50.0241 41.1956L49.6674 40.4393C49.6416 40.3788 48.9694 38.862 49.6932 36.6969C50.0047 35.7613 50.1636 34.923 50.241 34.2704C50.7479 34.5362 51.4266 34.7566 52.3051 34.7587C54.2984 34.7587 55.1771 33.2613 55.2178 33.1987L55.6109 32.5116L54.8827 32.2091C52.507 31.2173 51.9809 28.5531 51.8756 27.1098C52.0904 27.1508 52.3352 27.1897 52.6123 27.1984H52.7326ZM54.6163 32.8466C54.6163 32.8466 53.9204 34.0629 52.3245 34.0629H52.3051C50.3891 34.0522 49.6159 32.8767 49.6159 32.8767C49.6159 32.8767 49.7276 34.4066 49.0359 36.47C48.2047 38.9571 49.0423 40.7353 49.0423 40.7353C49.0423 40.7353 48.5957 40.8563 48.0801 40.8563C47.8825 40.8563 47.6763 40.8369 47.483 40.785C45.8827 40.4026 45.4833 38.9375 45.4833 38.9375C45.4833 38.9375 45.6314 43.8879 39.8942 43.8879H39.8491C39.8491 43.8879 40.3538 43.1965 40.5041 41.2063C40.777 37.5331 43.2493 37.0297 43.2493 37.0297C43.2493 37.0297 41.9304 36.8633 41.359 36.3469C40.4656 35.5322 40.5278 34.5902 40.5278 34.5902C42.5469 34.5621 43.868 33.8707 44.8753 32.6974C45.9665 31.4269 46.1469 30.0592 46.1469 30.0592C46.1469 30.0592 45.0622 31.0488 42.9635 31.0488C42.7789 31.0488 42.5812 31.0401 42.3794 31.0207C41.387 30.9407 40.6997 30.3055 40.6997 30.3055C42.8842 28.8966 44.4177 26.4378 43.0581 22.7342C41.9691 19.7676 39.3529 17.5506 36.7195 15.8803C35.8431 15.3295 35.3555 14.7179 35.3555 14.1908C35.3555 12.9504 37.1082 12.9116 37.8278 12.0775C38.657 11.1095 38.1371 9.53861 37.4176 8.59444C37.4176 8.59444 37.6603 8.54468 38.0427 8.54468C38.8008 8.54468 40.1133 8.73697 41.1916 9.86067C42.6242 11.3515 42.0293 12.9743 42.0293 12.9743L42.4138 13.0499C42.6436 13.0996 42.8713 13.1082 43.1076 13.1189C43.1592 13.1189 43.2106 13.1212 43.2621 13.1212C45.3435 13.1212 46.2736 10.9324 46.2736 10.9324C46.2736 10.9324 48.4861 13.67 45.2297 15.8134C44.6691 16.1808 44.4222 16.5201 44.4865 16.883L44.538 17.1206L44.77 17.1617C47.1307 17.8056 48.325 19.4435 49.7835 21.3061C51.9981 24.1388 55.1319 24.2295 55.5186 24.2295H55.5594C55.5594 24.2295 54.8441 26.5004 52.7369 26.5004C52.7025 26.5004 52.6724 26.5004 52.636 26.4983C51.6671 26.4637 51.171 26.0899 51.171 26.0899C51.171 26.0899 50.7908 31.2476 54.6163 32.8466Z" fill="#222222"/>
<path id="Vector_27" d="M48.1946 16.8982C49.1589 17.4145 49.7196 18.106 50.2115 18.7196C50.6947 19.3182 51.1544 19.8951 51.8718 20.1349C52.1274 20.2235 52.3982 20.2646 52.6731 20.2646C53.7514 20.2646 54.8339 19.6012 55.2442 18.6828L55.6566 17.7624L54.6578 17.7019C54.6105 17.6998 53.326 17.583 51.8955 16.1117C51.3068 15.5087 50.596 15.1912 49.8291 15.1912C48.8926 15.1912 48.1988 15.6622 48.1215 15.7097L47.2021 16.3601L48.1946 16.8982ZM49.8313 15.8869C50.3124 15.8869 50.873 16.0511 51.4035 16.6021C53.0682 18.3026 54.6169 18.3977 54.6169 18.3977C54.3355 19.0244 53.5194 19.5752 52.6751 19.5752C52.4797 19.5752 52.2842 19.545 52.0888 19.478C50.944 19.0891 50.5336 17.3605 48.5209 16.2845C48.5209 16.2845 49.0837 15.8869 49.8313 15.8869Z" fill="#222222"/>
<path id="Vector_28" d="M48.6457 26.0792V26.1137C48.0658 21.4077 44.6676 18.0089 40.8872 15.941C40.537 15.7531 40.2149 15.5932 39.9014 15.4398C41.0526 15.6191 42.9062 15.6407 44.3369 14.3918C44.3369 14.3918 42.1481 16.0123 37.6631 14.5409C38.9046 15.3512 41.3168 16.4943 43.5185 18.346C49.0237 23.2119 45.0843 27.9591 45.0843 27.9591C47.0626 25.8826 47.1442 23.657 46.562 21.8399C47.6039 23.5835 48.2698 25.7011 48.1666 28.3112C48.0142 32.0514 45.9715 35.2861 43.8213 37.8855C42.7882 39.1472 42.5562 40.6966 42.5562 40.6966C42.5562 40.6966 42.9728 39.3288 44.1692 37.9222C46.4741 35.2083 48.4437 32.3886 48.7015 28.3263C48.9399 29.0632 49.9216 31.1137 51.4788 31.8852C51.4831 31.8873 49.5263 30.701 48.6457 26.0792Z" fill="#222222"/>
<path id="Vector_29" d="M19.3061 43.4922C19.3039 43.4858 18.9045 42.8569 18.7756 41.1565C18.6251 39.1189 17.8605 37.9305 17.1044 37.2477C17.3235 37.144 17.5254 37.0165 17.6951 36.8587C18.8056 35.854 18.7584 34.6721 18.7519 34.5446L18.709 33.9071L18.0731 33.8964C16.3784 33.8682 15.1949 33.3583 14.2347 32.2412C14.0114 31.9777 13.8308 31.7162 13.6848 31.4591C14.2133 31.6211 14.8598 31.7421 15.6266 31.7421C15.8328 31.7421 16.0454 31.7291 16.271 31.7141C17.4631 31.6103 18.2708 30.8973 18.361 30.8173L19.0204 30.2081L18.2665 29.7196C16.5804 28.635 14.8576 26.578 16.1807 22.9738C17.0378 20.6295 19.0204 18.5055 22.2423 16.47C23.3292 15.7786 23.9243 14.9662 23.9243 14.1883C23.9243 12.987 22.9275 12.5138 22.1952 12.1767C21.8386 12.006 21.467 11.8353 21.2865 11.6257C20.7195 10.9667 21.1984 9.70047 21.7226 9.01549L22.397 8.12741L21.3059 7.91135C21.2737 7.90713 20.988 7.85303 20.5498 7.85303C19.7336 7.85303 18.1784 8.05187 16.9068 9.37641C15.8479 10.4783 15.7083 11.6517 15.762 12.4079C15.6588 12.4165 15.5558 12.4209 15.4483 12.4273H15.3324C13.7386 12.4273 12.9846 10.729 12.9546 10.662L12.5056 9.60104L11.7796 10.4957C11.7388 10.5496 10.6777 11.8807 10.9355 13.5465C11.1073 14.655 11.7989 15.6101 12.9867 16.3966C13.1157 16.4787 13.2059 16.5521 13.2703 16.6105C11.0342 17.3429 9.78419 18.9506 8.46307 20.6403L8.27197 20.8802C6.25292 23.4643 3.39611 23.5399 3.0546 23.5399L2.08154 23.5098L2.37792 24.4411C2.41227 24.5533 3.27361 27.1981 5.85983 27.1981L5.98434 27.1938C6.25715 27.1852 6.50205 27.1484 6.72116 27.1052C6.61367 28.5464 6.0875 31.2106 3.70961 32.2045L2.98368 32.507L3.37677 33.1942C3.41545 33.2568 4.29613 34.7542 6.29372 34.7542C7.16573 34.7519 7.84442 34.5316 8.35357 34.2659C8.43094 34.9184 8.5898 35.7568 8.90129 36.6924C9.62511 38.8575 8.95076 40.3743 8.92497 40.4347L8.56845 41.1911L9.37598 41.4071C9.42968 41.42 9.92593 41.5455 10.5122 41.5455C10.7872 41.5455 11.0407 41.5151 11.2684 41.4612C11.8805 41.3164 12.3531 41.0441 12.7118 40.7329C12.9309 41.4114 13.3069 42.1763 13.9576 42.8547C15.066 44 16.6598 44.579 18.7434 44.579L20.0064 44.5617L19.3061 43.4922ZM18.696 43.8876C12.9588 43.8876 13.1049 38.9373 13.1049 38.9373C13.1049 38.9373 12.7054 40.4023 11.1051 40.7848C10.9139 40.8366 10.7099 40.8561 10.5102 40.8561C9.99464 40.8561 9.54996 40.7352 9.54996 40.7352C9.54996 40.7352 10.3835 38.9568 9.55218 36.4698C8.86483 34.4062 8.97644 32.8765 8.97644 32.8765C8.97644 32.8765 8.20538 34.052 6.28727 34.0628H6.26793C4.67199 34.0628 3.97597 32.8462 3.97597 32.8462C7.79939 31.2495 7.42353 26.094 7.42353 26.094C7.42353 26.094 6.92738 26.4656 5.95644 26.5023C5.92208 26.5044 5.88985 26.5044 5.85549 26.5044C3.74618 26.5044 3.03304 24.2335 3.03304 24.2335H3.07595C3.46481 24.2335 6.59443 24.1429 8.80902 21.3101C10.2674 19.4476 11.4638 17.8119 13.8203 17.1657L14.0565 17.1248L14.108 16.8871C14.1725 16.5242 13.9276 16.1849 13.367 15.8175C10.1106 13.6718 12.3231 10.9365 12.3231 10.9365C12.3231 10.9365 13.2488 13.123 15.3345 13.123C15.386 13.123 15.4333 13.121 15.487 13.121C15.7212 13.1079 15.9532 13.0993 16.1807 13.0496L16.5653 12.974C16.5653 12.974 15.9703 11.3513 17.4051 9.86033C18.4835 8.73464 19.7959 8.54446 20.5519 8.54446C20.9364 8.54446 21.1749 8.59422 21.1749 8.59422C20.4574 9.54061 19.9377 11.1093 20.7668 12.0772C21.4841 12.9093 23.2347 12.9502 23.2347 14.1904C23.2347 14.7156 22.7471 15.3292 21.8708 15.8802C19.2352 17.5504 16.6189 19.7673 15.5321 22.734C14.1746 26.4376 15.7061 28.8942 17.8949 30.3052C17.8949 30.3052 17.2075 30.9406 16.2131 31.0204C16.0111 31.0399 15.8156 31.0485 15.6266 31.0485C13.5301 31.0485 12.4455 30.0589 12.4455 30.0589C12.4455 30.0589 12.6259 31.4267 13.7106 32.6972C14.7245 33.8705 16.0454 34.5619 18.0646 34.59C18.0646 34.59 18.1291 35.5321 17.2355 36.3466C16.662 36.8609 15.3431 37.0294 15.3431 37.0294C15.3431 37.0294 17.8176 37.5329 18.0882 41.2062C18.2365 43.1961 18.7368 43.8876 18.7368 43.8876H18.696Z" fill="#222222"/>
<path id="Vector_30" d="M5.91793 20.267C6.19496 20.267 6.46566 20.226 6.72134 20.1374C7.44294 19.8975 7.90051 19.3206 8.38376 18.7221C8.8778 18.1085 9.43409 17.4171 10.3986 16.9006L11.3909 16.3648L10.4695 15.7143C10.3921 15.6647 9.70044 15.1958 8.76607 15.1958C7.99712 15.1958 7.28408 15.5113 6.69756 16.1163C5.26715 17.5856 3.98482 17.7045 3.93746 17.7066L2.93872 17.7649L3.34893 18.6875C3.76137 19.6016 4.84171 20.267 5.91793 20.267ZM7.18958 16.6046C7.7223 16.0536 8.28282 15.8895 8.76607 15.8895C9.50924 15.8895 10.0722 16.287 10.0722 16.287C8.06159 17.3652 7.64916 19.0916 6.50001 19.4805C6.31102 19.5475 6.11337 19.5778 5.91793 19.5778C5.07372 19.5778 4.25752 19.029 3.97826 18.4002C3.97826 18.398 5.52484 18.3029 7.18958 16.6046Z" fill="#222222"/>
<path id="Vector_31" d="M10.4264 28.3135C10.3189 25.7033 10.9848 23.5858 12.0287 21.8422C11.4466 23.6592 11.5261 25.8849 13.5066 27.9613C13.5066 27.9613 9.56722 23.2141 15.0746 18.3483C17.2784 16.4964 19.6884 15.3534 20.9278 14.5431C16.4451 16.0146 14.2563 14.394 14.2563 14.394C15.6867 15.6429 17.5406 15.6214 18.6918 15.4398C18.3803 15.5933 18.0539 15.7531 17.708 15.9412C13.9234 18.009 10.5274 21.4078 9.9453 26.1139V26.0772C9.06674 30.6989 7.11206 31.8852 7.11206 31.8852C8.6673 31.1138 9.6467 29.0654 9.88516 28.3264C10.1451 32.3887 12.1147 35.2084 14.4195 37.9223C15.6159 39.3289 16.0369 40.6966 16.0369 40.6966C16.0369 40.6966 15.8028 39.1474 14.7652 37.8856C12.6195 35.2905 10.5767 32.0538 10.4264 28.3135Z" fill="#222222"/>
<path id="Vector_32" d="M28.0015 18.791V19.7246C28.3216 19.3334 28.9403 19.4134 28.9403 19.4134V20.7595C28.9403 20.7595 28.9187 21.4207 28.6846 21.7081H29.3547H30.0228C29.7929 21.423 29.7694 20.7595 29.7694 20.7595V19.4134C29.7694 19.4134 30.3879 19.3334 30.7059 19.7246V18.791H29.3547H28.0015Z" fill="#222222"/>
<path id="Vector_33" d="M27.4254 13.2552C27.8529 13.5967 28.0999 13.6528 28.1084 13.6593L28.276 13.7371V12.8577L26.7036 12.1921C26.7036 12.1943 26.7186 12.7021 27.4254 13.2552Z" fill="#222222"/>
<path id="Vector_34" d="M31.1656 13.2552C31.8766 12.7021 31.8895 12.1921 31.8895 12.1921L30.3171 12.8577V13.7371L30.4826 13.6593C30.4933 13.6528 30.7381 13.5967 31.1656 13.2552Z" fill="#222222"/>
<path id="Vector_35" d="M33.9983 9.6749C33.9983 8.34181 31.7665 7.14258 29.3028 7.14258H29.3007H29.2942H29.2878C26.8241 7.14258 24.5923 8.34181 24.5923 9.6749L24.6417 10.0034L25.6254 15.6839L24.6375 16.2609L22.0814 17.7626H22.0899C22.0899 17.7626 21.5143 18.0586 21.2479 18.2422C20.2749 18.9229 20.0687 19.9146 20.6336 20.3252C20.7733 19.5171 21.4089 18.67 22.599 18.67C23.4561 18.67 24.109 19.1152 24.6375 19.7829C24.7728 19.9514 24.9016 20.1307 25.0219 20.3252C25.1701 20.5694 25.3183 20.7832 25.4666 20.9907H18.8831C19.3663 21.9694 19.8259 23.0067 19.8259 24.1324V38.7908C19.8259 42.3387 22.5388 44.0327 25.473 44.0327C27.7412 44.0327 28.0462 43.9291 29.2984 45.1823C30.5443 43.9268 30.8494 44.0327 33.1197 44.0327C36.0561 44.0327 38.7646 42.3387 38.7646 38.7908V24.1324C38.7646 23.0067 39.2243 21.9694 39.7096 20.9907H33.1241C33.2702 20.7855 33.4182 20.5694 33.5665 20.3252C33.6889 20.1307 33.8157 19.9514 33.9489 19.7829C34.4816 19.113 35.1324 18.67 35.9895 18.67C37.1793 18.67 37.813 19.5149 37.9548 20.3252C38.5198 19.9146 38.3158 18.9229 37.3362 18.2422C37.0741 18.0586 36.4985 17.7626 36.4985 17.7626H36.5071L33.951 16.2609L32.9672 15.6839L33.951 10.0034L33.9983 9.6749ZM25.5611 10.3361L29.0193 11.5159V16.9804L26.474 15.63L25.5611 10.3361ZM26.2763 21.9436C26.8434 22.5118 27.3997 22.8641 27.9282 23.0586C27.8594 23.3329 27.7691 23.899 28.0247 24.463C28.2331 24.9167 28.6112 25.2668 29.1546 25.5001C29.2147 26.062 29.567 26.9068 30.5443 27.2806C30.1169 27.7149 29.7001 28.1233 29.5305 28.2897L25.5675 28.227C25.4772 28.1816 25.3247 28.0801 25.256 27.9353C25.2474 27.9158 25.2346 27.905 25.228 27.8834L25.8747 27.9892C25.8897 27.9915 25.9026 27.9915 25.9155 27.9915C26.0401 27.9915 26.1496 27.905 26.1711 27.7755C26.1926 27.6307 26.0959 27.4989 25.9563 27.4773L25.1615 27.352L26.0443 24.2858L25.2088 22.5162L23.8685 23.9423L23.7868 27.1315L22.8868 26.9889C22.7472 26.9608 22.614 27.0646 22.5904 27.2049C22.569 27.3454 22.6634 27.4773 22.8052 27.5031L23.1833 27.5615C23.0479 27.6392 22.9598 27.6998 22.9491 27.7085L22.8718 27.7624L22.8503 27.8575C22.6312 28.752 23.1274 29.6012 23.6623 29.9814L23.6429 30.0939C23.6214 30.2322 23.6515 30.3662 23.733 30.4785C23.8104 30.593 23.9307 30.6622 24.064 30.6859C24.0918 30.6902 24.1219 30.6923 24.1477 30.6923C24.3797 30.6923 24.5816 30.5303 24.6395 30.2948C24.8394 30.3187 25.0219 30.323 25.1464 30.323H25.2518L30.4519 31.2671L30.54 31.2088C30.9546 30.9171 32.5333 29.759 33.0509 29.3765C33.1928 29.4997 33.3517 29.612 33.5451 29.705C33.3774 30.2711 33.3667 31.1418 34.0304 31.829H20.7775V24.1345C20.7775 23.3891 20.5605 22.6393 20.3049 21.9479H26.2763V21.9436ZM32.703 28.9833C32.1768 29.3722 30.8236 30.3662 30.3338 30.7119L25.6083 29.8584C25.6191 29.8152 25.6297 29.7741 25.6404 29.7308C25.7028 29.4845 25.7652 29.1475 25.7694 28.752L29.741 28.8169L29.8162 28.7392C29.8763 28.6786 31.1351 27.4556 31.7772 26.7512C31.9298 26.9435 32.1209 27.1273 32.3701 27.2893C32.2842 27.756 32.3207 28.4214 32.703 28.9833ZM24.7921 28.16C24.9037 28.3955 25.1057 28.5533 25.2452 28.6418C25.241 28.8622 25.2196 29.2058 25.1615 29.5083C25.1486 29.5754 25.1314 29.638 25.1121 29.7007C25.1013 29.7395 25.0907 29.7719 25.082 29.7978C24.8737 29.7978 24.4634 29.7719 24.1283 29.6488C23.7568 29.5104 23.2025 28.8255 23.3314 28.0714C23.4926 27.972 23.8641 27.7624 24.212 27.7624C24.4806 27.7604 24.6633 27.8877 24.7921 28.16ZM24.3002 27.2115L24.3797 24.1497L25.0627 23.4216L25.4924 24.3248L24.646 27.2633L24.3002 27.2115ZM32.6601 43.0842C32.4023 43.0842 32.1639 43.0886 31.949 43.0972L32.5118 41.3362C32.5999 41.092 32.1553 40.7787 31.9728 40.5043C32.2498 40.6793 32.9672 41.0617 33.3131 41.2152C33.2765 41.2713 32.6601 43.0842 32.6601 43.0842ZM34.4258 41.0833L34.0585 43.0107C33.8242 43.0431 33.5751 43.0605 33.3195 43.0713L33.7062 41.2173C33.8221 40.6664 32.3507 40.4957 31.6248 39.4131C31.2704 39.8151 30.6023 39.9339 29.9321 39.9339C29.32 39.9339 28.7078 39.8345 28.3362 39.7611C28.2417 39.7459 28.1515 39.7351 28.0635 39.7351C27.8486 39.7351 27.6532 39.802 27.5179 40.0311L27.4104 40.2127L25.4064 39.7373L24.9081 40.5669C24.8371 40.7009 24.8329 40.8154 24.9466 40.9407L25.082 41.0899C24.9897 41.3838 24.573 41.8267 24.573 41.8267L24.2744 41.4529C24.0382 41.1871 24.0767 40.7031 24.3238 40.2537L25.1185 38.9033L26.8155 39.1495L26.5512 38.5445C26.1968 37.7451 26.736 36.7273 26.7939 36.1418C26.7747 36.319 26.6135 36.3579 26.4245 36.3579C26.2528 36.3579 26.0615 36.3255 25.9348 36.3255C25.8855 36.3255 25.8424 36.3297 25.8188 36.347L25.3591 36.6279L24.9961 36.306C24.9532 36.2434 24.9381 36.0986 25.0456 35.9906L25.8855 35.0442L24.8931 33.8795L26.2828 34.5818L26.706 34.0653C26.8218 34.1798 26.7725 34.4801 26.7725 34.4801C27.2064 34.491 28.4221 35.1673 28.4866 36.7446C28.4909 36.7922 28.4909 36.8461 28.4909 36.898C28.4909 36.898 28.5017 36.9175 28.523 36.9499C28.609 37.0688 28.8452 37.3734 29.1459 37.4014L31.0664 37.5917H31.0749C31.2854 37.5917 31.7042 37.3431 32.2412 37.3431C32.5333 37.3431 32.8598 37.4188 33.2078 37.6392C33.2078 37.6392 33.3818 37.5009 33.6654 37.4859C33.6868 37.4836 33.7104 37.4836 33.732 37.4836C34.5933 37.4836 34.9498 38.2658 35.4116 38.9162C35.7597 39.411 36.2235 40.1456 36.2235 40.1456C36.0517 40.3508 35.8927 40.4633 35.6264 40.4633C35.5535 40.4633 35.4695 40.4568 35.3794 40.4395C34.4558 40.2688 34.3226 38.3586 33.7963 38.2074C33.7685 38.1988 33.7384 38.1966 33.7126 38.1966C33.5429 38.1966 33.4677 38.3478 33.4677 38.3478C33.7083 38.9983 33.5687 39.2619 33.8265 39.7632C34.0198 40.1348 34.3634 40.4416 34.5051 40.5863C34.5051 40.5907 34.4666 40.8716 34.4258 41.0833ZM24.1133 39.2597L24.2014 39.4822C24.1433 39.6767 23.4774 39.9533 23.4774 39.9533L23.3336 39.6379C23.1811 39.3009 23.2133 38.7325 23.6773 38.3846L24.7555 37.7234L25.8982 37.9676C25.8768 38.3327 26.0937 38.6051 26.0937 38.6051L24.8951 38.3738L24.1777 38.873C24.0574 38.9572 24.0488 39.115 24.1133 39.2597ZM34.6061 42.9048L34.9348 41.1806C34.9519 41.0791 34.9735 40.9602 34.9885 40.8609C35.0809 40.8997 35.1796 40.932 35.2871 40.9516C35.4094 40.9753 35.5233 40.9862 35.6264 40.9862C36.129 40.9862 36.4211 40.7203 36.6166 40.4935L36.8701 40.1974L36.6639 39.8734C36.6446 39.8409 36.1891 39.1149 35.8369 38.6179C35.7682 38.5207 35.7015 38.4235 35.635 38.3177C35.2355 37.717 34.7349 36.9628 33.732 36.9628L33.6417 36.965C33.4764 36.9758 33.3345 37.0082 33.2207 37.0514C32.9049 36.9024 32.5806 36.8267 32.2434 36.8267C31.8288 36.8267 31.4787 36.9412 31.2467 37.0213C31.1801 37.0406 31.1199 37.0622 31.0727 37.0709L29.1975 36.8851C29.1739 36.8808 29.0966 36.8354 29.0043 36.7231V36.7144L29.4102 36.5502C29.2964 35.1911 27.9989 34.3548 27.2751 34.0718C27.2429 33.9357 27.1785 33.7996 27.0646 33.6893L26.6608 33.3048L26.3063 33.7326L26.1325 33.9507L23.5076 32.8661L25.2152 35.0224L24.5408 36.0489C24.2937 36.3124 24.5666 36.576 24.5666 36.576L25.2624 37.0579L25.9842 36.7878C26.01 36.7878 26.0315 36.7943 26.0551 36.7965C26.0207 36.9067 25.9756 37.3388 25.9456 37.4599L24.6933 37.2113L23.3765 37.9589C22.6999 38.458 22.6075 39.2857 22.8589 39.8517L23.005 40.1736L23.2133 40.6274L23.6729 40.4351C23.6794 40.433 23.6859 40.4309 23.6901 40.4265C23.5248 40.958 23.5914 41.4636 23.8878 41.7965L24.167 42.1508L24.5385 42.624L24.9466 42.1832C25.0669 42.0622 25.4558 41.6236 25.5761 41.2476L25.6641 40.9602L25.4644 40.7398L25.4322 40.7009L25.6555 40.3293L27.2901 40.716L27.6574 40.8003L27.8528 40.4762L27.9603 40.299C27.9797 40.2623 27.9861 40.2558 28.0613 40.2558C28.1193 40.2558 28.1772 40.2623 28.2396 40.2753C28.856 40.3919 29.4253 40.4502 29.93 40.4502C30.4197 40.4502 30.7118 40.4309 31.062 40.3141C31.062 40.3141 31.9405 41.3168 31.9706 41.3557L31.4337 43.0236L31.4099 43.1252C30.3918 43.2074 29.8955 43.4321 29.2964 44.035C28.4263 43.1664 27.8099 43.0755 25.4708 43.0755C22.6719 43.0755 20.7753 41.4248 20.7753 38.7887V32.3432H37.813L37.8174 38.7887C37.8195 40.9279 36.5715 42.4187 34.6061 42.9048ZM38.29 21.9436C38.03 22.6351 37.813 23.3848 37.813 24.1304L37.8152 28.94C36.8164 28.7715 36.6983 27.689 36.6939 27.6415L36.6747 27.4211L36.4599 27.4016C36.0259 27.3605 35.7381 27.1748 35.4953 26.937C35.0057 26.4444 35.0035 25.6449 35.0057 25.6385C34.9993 25.6795 34.4666 26.4292 35.0851 27.2482C35.345 27.5939 35.7209 27.8056 36.2085 27.8899C36.3224 28.4906 36.767 29.3376 37.8152 29.4672V31.8224H34.8682C33.5085 31.0618 34.0843 29.7222 34.1121 29.6661L34.2281 29.4111L33.9682 29.3117C32.4968 28.7629 32.9006 27.285 32.9221 27.2223L32.9822 27.0062L32.7826 26.9111C31.5667 26.345 31.7321 24.8174 31.7472 24.7548C31.3735 25.0594 31.2381 25.6817 31.4958 26.2911C31.3563 26.4509 31.1694 26.6453 30.9653 26.8572C29.7067 26.5351 29.668 25.3706 29.668 25.3165L29.6658 25.1371L29.5004 25.0724C29.0085 24.8888 28.6713 24.6142 28.5059 24.2447C28.3191 23.8363 28.3856 23.4085 28.4371 23.2032C28.5811 23.2357 28.7249 23.2595 28.8624 23.2702C29.0043 23.2855 29.1504 23.2941 29.2964 23.2941H29.305H29.3157C29.4618 23.2941 29.6056 23.2855 29.7475 23.2702C30.5314 23.1925 31.4099 22.8533 32.3249 21.9415H38.29V21.9436ZM33.6976 17.0819L34.8618 17.7626H34.879L35.171 17.9333C34.5137 18.117 34.0111 18.4476 33.5901 18.8818C33.5751 18.8948 33.5601 18.9122 33.5451 18.9272C33.4484 19.0309 33.3517 19.1433 33.2615 19.2579C33.2444 19.2794 33.2271 19.3031 33.2078 19.327C33.1176 19.4436 33.0338 19.5625 32.9522 19.6878C32.9392 19.7094 32.9242 19.731 32.9092 19.7504C32.8126 19.8952 32.7202 20.0508 32.6278 20.2107C31.7987 21.6476 30.4756 22.5054 29.2984 22.5076C28.1236 22.5054 26.8005 21.6476 25.9714 20.2107C25.881 20.0551 25.7909 19.9038 25.6942 19.757C25.6748 19.7289 25.6577 19.7007 25.6404 19.677C25.559 19.5581 25.4772 19.4415 25.3934 19.3313C25.3721 19.3011 25.3527 19.2772 25.3312 19.2513C25.241 19.1411 25.1486 19.0309 25.0563 18.9294C25.0369 18.9142 25.024 18.8948 25.0048 18.8775C24.5816 18.4432 24.0811 18.1147 23.4216 17.9333L23.718 17.7626H23.731L24.8951 17.0819L26.0916 16.3927L29.2878 18.1428L29.2942 18.1364L29.3028 18.1428L32.499 16.3927L33.6976 17.0819ZM32.1209 15.632L29.5734 16.9826V11.5159L33.0295 10.3361L32.1209 15.632ZM29.2964 10.9152L25.5074 9.40917C25.8295 8.64209 27.3159 7.98954 29.2964 7.98742C31.2789 7.98954 32.7653 8.64209 33.0853 9.40917L29.2964 10.9152Z" fill="#222222"/>
</g>
</svg>
